<?xml version="1.0" standalone="no"?>
<!DOCTYPE svg PUBLIC "-//W3C//DTD SVG 20010904//EN"
 "http://www.w3.org/TR/2001/REC-SVG-20010904/DTD/svg10.dtd">
<svg version="1.0" xmlns="http://www.w3.org/2000/svg"
 width="768.000000pt" height="768.000000pt" viewBox="0 0 768.000000 768.000000"
 preserveAspectRatio="xMidYMid meet">
<metadata>
Created by potrace 1.11, written by Peter Selinger 2001-2013
</metadata>
<g transform="translate(0.000000,768.000000) scale(0.100000,-0.100000)"
fill="#000000" stroke="none">
<path d="M2 6613 l3 -418 1022 0 1023 -1 0 418 0 418 -1025 0 -1025 0 2 -417z"/>
<path d="M2448 7023 c-3 -7 -2 -6343 1 -6366 1 -4 189 -6 418 -5 l418 3 0
2768 c0 1522 2 2767 5 2768 3 1 991 2 2195 3 l2190 1 3 418 2 417 -2614 0
c-1438 0 -2616 -3 -2618 -7z"/>
<path d="M1218 5797 c-2 -7 -4 -1166 -4 -2577 l1 -2565 418 -3 417 -2 0 2575
0 2575 -77 0 c-43 0 -87 -1 -98 -1 -38 -1 -50 -1 -75 0 -14 1 -53 1 -88 1 -34
-1 -67 2 -72 5 -6 3 -10 3 -10 -2 0 -9 -207 -9 -216 0 -3 3 -17 2 -29 -3 -13
-5 -37 -5 -53 -1 -16 5 -35 5 -42 1 -7 -4 -25 -4 -41 0 -18 6 -29 4 -31 -3z"/>
</g>
</svg>
