<svg xmlns="http://www.w3.org/2000/svg" xmlns:xlink="http://www.w3.org/1999/xlink" width="2048" height="2048" viewBox="0 0 2048 2048"><defs><linearGradient id="a" x2="0.5" y2="1" gradientUnits="objectBoundingBox"><stop offset="0" stop-color="#555e6a"/><stop offset="1" stop-color="#3b444e"/></linearGradient><linearGradient id="b" x2="0.705" y2="1" gradientUnits="objectBoundingBox"><stop offset="0" stop-color="#3cd781"/><stop offset="1" stop-color="#1fc167"/></linearGradient><filter id="c" x="1151" y="1290" width="578" height="578" filterUnits="userSpaceOnUse"><feOffset dy="3" input="SourceAlpha"/><feGaussianBlur stdDeviation="3" result="d"/><feFlood flood-opacity="0.463"/><feComposite operator="in" in2="d"/><feComposite in="SourceGraphic"/></filter><clipPath id="f"><rect width="2048" height="2048"/></clipPath></defs><g id="e" clip-path="url(#f)"><g fill="url(#a)"><path d="M256,0H1792c141.385,0,256,114.615,256,256V1792c0,141.385-114.615,256-256,256H256C114.615,2048,0,1933.385,0,1792V256C0,114.615,114.615,0,256,0Z" stroke="none"/><path d="M 256 1 C 238.697998046875 1 221.406982421875 2.7430419921875 204.6075439453125 6.1807861328125 C 188.2354736328125 9.531005859375 172.1314697265625 14.52978515625 156.7427978515625 21.0386962890625 C 141.63330078125 27.429443359375 127.06005859375 35.3397216796875 113.427734375 44.549560546875 C 99.9248046875 53.6717529296875 87.227294921875 64.148193359375 75.687744140625 75.687744140625 C 64.148193359375 87.227294921875 53.6717529296875 99.9248046875 44.549560546875 113.427734375 C 35.3397216796875 127.06005859375 27.429443359375 141.63330078125 21.0386962890625 156.7427978515625 C 14.52978515625 172.1314697265625 9.531005859375 188.2354736328125 6.1807861328125 204.6075439453125 C 2.7430419921875 221.406982421875 1 238.697998046875 1 256 L 1 1792 C 1 1809.302001953125 2.7430419921875 1826.593017578125 6.1807861328125 1843.392456054688 C 9.531005859375 1859.764526367188 14.52978515625 1875.868530273438 21.0386962890625 1891.257202148438 C 27.429443359375 1906.36669921875 35.3397216796875 1920.93994140625 44.549560546875 1934.572265625 C 53.6717529296875 1948.074951171875 64.148193359375 1960.772705078125 75.687744140625 1972.312255859375 C 87.227294921875 1983.851806640625 99.9248046875 1994.328247070312 113.427734375 2003.450439453125 C 127.06005859375 2012.660278320312 141.63330078125 2020.570556640625 156.7427978515625 2026.961303710938 C 172.1314697265625 2033.469970703125 188.2354736328125 2038.468994140625 204.6075439453125 2041.819213867188 C 221.406982421875 2045.256958007812 238.697998046875 2047 256 2047 L 1792 2047 C 1809.302001953125 2047 1826.593017578125 2045.256958007812 1843.392456054688 2041.819213867188 C 1859.764526367188 2038.468994140625 1875.868530273438 2033.469970703125 1891.257202148438 2026.961303710938 C 1906.36669921875 2020.570556640625 1920.93994140625 2012.660278320312 1934.572265625 2003.450439453125 C 1948.074951171875 1994.328247070312 1960.772705078125 1983.851806640625 1972.312255859375 1972.312255859375 C 1983.851806640625 1960.772705078125 1994.328247070312 1948.074951171875 2003.450439453125 1934.572265625 C 2012.660278320312 1920.93994140625 2020.570556640625 1906.36669921875 2026.961303710938 1891.257202148438 C 2033.469970703125 1875.868530273438 2038.468994140625 1859.764526367188 2041.819213867188 1843.392456054688 C 2045.256958007812 1826.593017578125 2047 1809.302001953125 2047 1792 L 2047 256 C 2047 238.697998046875 2045.256958007812 221.406982421875 2041.819213867188 204.6075439453125 C 2038.468994140625 188.2354736328125 2033.469970703125 172.1314697265625 2026.961303710938 156.7427978515625 C 2020.570556640625 141.63330078125 2012.660278320312 127.06005859375 2003.450439453125 113.427734375 C 1994.328247070312 99.9248046875 1983.851806640625 87.227294921875 1972.312255859375 75.687744140625 C 1960.772705078125 64.148193359375 1948.074951171875 53.6717529296875 1934.572265625 44.549560546875 C 1920.93994140625 35.3397216796875 1906.36669921875 27.429443359375 1891.257202148438 21.0386962890625 C 1875.868530273438 14.52978515625 1859.764526367188 9.531005859375 1843.392456054688 6.1807861328125 C 1826.593017578125 2.7430419921875 1809.302001953125 1 1792 1 L 256 1 M 256 0 L 1792 0 C 1933.384765625 0 2048 114.614990234375 2048 256 L 2048 1792 C 2048 1933.384765625 1933.384765625 2048 1792 2048 L 256 2048 C 114.614990234375 2048 0 1933.384765625 0 1792 L 0 256 C 0 114.614990234375 114.614990234375 0 256 0 Z" stroke="none" fill="rgba(148,148,148,0.5)"/></g><g transform="translate(-19.363)"><path d="M135-485a40,40,0,0,1-40-40v-74H21a40,40,0,0,1-40-40v-12a40,40,0,0,1,40-40H95v-74a40,40,0,0,1,40-40h12a40,40,0,0,1,40,40v74h74a40,40,0,0,1,40,40v12a40,40,0,0,1-40,40H187v74a40,40,0,0,1-40,40Z" transform="translate(71.214 1924.656) rotate(45)" fill="#fff"/><g transform="translate(1588.363 596.274)"><g transform="matrix(1, 0, 0, 1, -1569, -596.27)" filter="url(#c)"><circle cx="280" cy="280" r="280" transform="translate(1160 1296)" fill="url(#b)"/></g><g transform="translate(-289 859.726)"><rect width="320" height="92" rx="40" transform="translate(0 132)" fill="#fff"/><rect width="320" height="92" rx="40" fill="#fff"/></g></g><path d="M135-485a40,40,0,0,1-40-40v-74H21a40,40,0,0,1-40-40v-12a40,40,0,0,1,40-40H95v-74a40,40,0,0,1,40-40h12a40,40,0,0,1,40,40v74h74a40,40,0,0,1,40,40v12a40,40,0,0,1-40,40H187v74a40,40,0,0,1-40,40Z" transform="translate(486 1669)" fill="#fff"/><rect width="320" height="92" rx="40" transform="translate(1299.363 978)" fill="#fff"/><path d="M119.559-16a6.033,6.033,0,0,1-6.3-4.571L13.445-329.6l-.485-1.829q0-4.571,5.33-4.571H79.342q5.33,0,6.784,4.571L150.57-108.343q.485,1.371,1.454,1.371t1.454-1.371l63.475-223.086Q218.406-336,223.736-336h59.6a5.234,5.234,0,0,1,4.361,1.829,4.512,4.512,0,0,1,.485,4.571L186.911-20.571a6.033,6.033,0,0,1-6.3,4.571Zm439.965,0a6.033,6.033,0,0,1-6.3-4.571l-14.536-44.8a2.818,2.818,0,0,0-2.423-1.829h-119.2a2.818,2.818,0,0,0-2.423,1.829l-14.052,44.8a6.033,6.033,0,0,1-6.3,4.571H332.758a5.6,5.6,0,0,1-4.361-1.6q-1.454-1.6-.485-4.8L432.574-331.429a6.033,6.033,0,0,1,6.3-4.571h76.073a6.033,6.033,0,0,1,6.3,4.571L625.906-22.4a4.845,4.845,0,0,1,.484,2.286q0,4.114-5.33,4.114ZM432.089-119.771q-.484,2.743,1.938,2.743h85.28q2.907,0,1.938-2.743L477.636-255.543q-.485-1.829-1.454-1.6a2.188,2.188,0,0,0-1.454,1.6ZM923.416-336a5.782,5.782,0,0,1,4.119,1.6,5.143,5.143,0,0,1,1.7,3.886v44.8a5.143,5.143,0,0,1-1.7,3.886,5.782,5.782,0,0,1-4.119,1.6H836.682q-2.423,0-2.423,2.286V-21.486a5.143,5.143,0,0,1-1.7,3.886,5.782,5.782,0,0,1-4.119,1.6H771.754a5.782,5.782,0,0,1-4.119-1.6,5.143,5.143,0,0,1-1.7-3.886V-277.943q0-2.286-2.423-2.286h-84.31a5.782,5.782,0,0,1-4.119-1.6,5.143,5.143,0,0,1-1.7-3.886v-44.8a5.143,5.143,0,0,1,1.7-3.886,5.782,5.782,0,0,1,4.119-1.6Z" transform="translate(567.268 560)" fill="#fcfcfc"/></g></g></svg>