<svg xmlns="http://www.w3.org/2000/svg" width="2048" height="2048"><defs><filter id="c" width="1328" height="136" x="359" y="1393" filterUnits="userSpaceOnUse"><feOffset dx="-1" dy="3"/><feGaussianBlur result="blur" stdDeviation="8"/><feFlood flood-color="#414141" flood-opacity=".502"/><feComposite in2="blur" operator="in"/><feComposite in="SourceGraphic"/></filter><filter id="d" width="1328" height="136" x="359" y="1569" filterUnits="userSpaceOnUse"><feOffset dx="-1" dy="3"/><feGaussianBlur result="blur-2" stdDeviation="8"/><feFlood flood-color="#414141" flood-opacity=".502"/><feComposite in2="blur-2" operator="in"/><feComposite in="SourceGraphic"/></filter><filter id="e" width="688" height="136" x="359" y="1745" filterUnits="userSpaceOnUse"><feOffset dx="-1" dy="3"/><feGaussianBlur result="blur-3" stdDeviation="8"/><feFlood flood-color="#414141" flood-opacity=".502"/><feComposite in2="blur-3" operator="in"/><feComposite in="SourceGraphic"/></filter><filter id="f" width="355.84" height="613.76" x="843.88" y="399.56" filterUnits="userSpaceOnUse"><feOffset dx="-1" dy="3"/><feGaussianBlur result="blur-4" stdDeviation="8"/><feFlood flood-color="#414141" flood-opacity=".502"/><feComposite in2="blur-4" operator="in"/><feComposite in="SourceGraphic"/></filter><filter id="g" width="1013.281" height="1072" x="516" y="171" filterUnits="userSpaceOnUse"><feOffset dx="-1" dy="3"/><feGaussianBlur result="blur-5" stdDeviation="8"/><feFlood flood-color="#414141" flood-opacity=".502"/><feComposite in2="blur-5" operator="in"/><feComposite in="SourceGraphic"/></filter><filter id="h" width="304" height="304" x="1313" y="1326" filterUnits="userSpaceOnUse"><feOffset dx="-1" dy="3"/><feGaussianBlur result="blur-6" stdDeviation="8"/><feFlood flood-color="#414141" flood-opacity=".502"/><feComposite in2="blur-6" operator="in"/><feComposite in="SourceGraphic"/></filter><filter id="i" width="813.388" height="813.533" x="1058.286" y="1071.591" filterUnits="userSpaceOnUse"><feOffset dx="-1" dy="3"/><feGaussianBlur result="blur-7" stdDeviation="8"/><feFlood flood-color="#414141" flood-opacity=".502"/><feComposite in2="blur-7" operator="in"/><feComposite in="SourceGraphic"/></filter><filter id="j" width="698.303" height="566.444" x="1254.691" y="1492.525" filterUnits="userSpaceOnUse"><feOffset dx="-1" dy="3"/><feGaussianBlur result="blur-8" stdDeviation="8"/><feFlood flood-color="#414141" flood-opacity=".502"/><feComposite in2="blur-8" operator="in"/><feComposite in="SourceGraphic"/></filter><linearGradient id="b" x1=".5" x2=".5" y2="1" gradientUnits="objectBoundingBox"><stop offset="0" stop-color="#70b2a2"/><stop offset="1" stop-color="#5aaa97"/></linearGradient><clipPath id="a"><path d="M0 0h2048v2048H0z"/></clipPath></defs><g clip-path="url(#a)"><g fill="url(#b)" data-name="Path 3"><path d="M256 0h1536c141.385 0 256 114.615 256 256v1536c0 141.385-114.615 256-256 256H256c-141.385 0-256-114.615-256-256V256C0 114.615 114.615 0 256 0Z"/><path fill="rgba(148,148,148,0.5)" d="M256 1c-17.302 0-34.593 1.743-51.392 5.18a253.705 253.705 0 0 0-47.865 14.859 255.019 255.019 0 0 0-43.315 23.51 256.823 256.823 0 0 0-37.74 31.139 256.823 256.823 0 0 0-31.138 37.74 255.019 255.019 0 0 0-23.511 43.315A253.705 253.705 0 0 0 6.18 204.608C2.743 221.407 1 238.698 1 256v1536c0 17.302 1.743 34.593 5.18 51.392a253.705 253.705 0 0 0 14.859 47.865 255.019 255.019 0 0 0 23.51 43.315 256.835 256.835 0 0 0 31.139 37.74 256.823 256.823 0 0 0 37.74 31.138 255.019 255.019 0 0 0 43.315 23.511 253.723 253.723 0 0 0 47.865 14.858c16.799 3.438 34.09 5.181 51.392 5.181h1536c17.302 0 34.593-1.743 51.392-5.18a253.723 253.723 0 0 0 47.865-14.859 255.019 255.019 0 0 0 43.315-23.51 256.835 256.835 0 0 0 37.74-31.139 256.835 256.835 0 0 0 31.138-37.74 255.019 255.019 0 0 0 23.511-43.315 253.723 253.723 0 0 0 14.858-47.865c3.438-16.799 5.181-34.09 5.181-51.392V256c0-17.302-1.743-34.593-5.18-51.392a253.723 253.723 0 0 0-14.859-47.865 255.019 255.019 0 0 0-23.51-43.315 256.823 256.823 0 0 0-31.139-37.74 256.835 256.835 0 0 0-37.74-31.138 255.019 255.019 0 0 0-43.315-23.511 253.705 253.705 0 0 0-47.865-14.858C1826.593 2.743 1809.302 1 1792 1H256m0-1h1536c141.385 0 256 114.615 256 256v1536c0 141.385-114.615 256-256 256H256c-141.385 0-256-114.615-256-256V256C0 114.615 114.615 0 256 0Z"/></g><g data-name="Group 3"><g filter="url(#c)"><g fill="none" stroke="#fcfcfc" stroke-width="64" data-name="Rectangle 4"><path stroke="none" d="M1664 1414v88H384v-88z"/><path d="M1632 1446v24H416v-24z"/></g></g><g filter="url(#d)"><g fill="none" stroke="#fcfcfc" stroke-width="64" data-name="Rectangle 8"><path stroke="none" d="M1664 1590v88H384v-88z"/><path d="M1632 1622v24H416v-24z"/></g></g><g filter="url(#e)"><g fill="none" stroke="#fcfcfc" stroke-width="64" data-name="Rectangle 9"><path stroke="none" d="M1024 1766v88H384v-88z"/><path d="M992 1798v24H416v-24z"/></g></g><g data-name="Group 2"><g filter="url(#f)"><path fill="#fcfcfc" d="M1176.72 809.68q0 50.56-31.36 83.2t-87.04 39.68q-3.2 1.28-3.2 3.84l.64 42.24a7.648 7.648 0 0 1-7.68 7.68h-49.92a7.648 7.648 0 0 1-7.68-7.68l.64-42.88q0-2.56-3.2-3.84-55.68-8.96-87.36-41.92t-31.68-83.52v-16a7.406 7.406 0 0 1 2.24-5.44 7.406 7.406 0 0 1 5.44-2.24h53.76a7.406 7.406 0 0 1 5.44 2.24 7.406 7.406 0 0 1 2.24 5.44v12.16q0 29.44 24.96 48.96t67.84 19.52q37.76 0 56.64-16.64t18.88-42.88q0-17.92-10.24-30.4t-29.76-22.4q-19.52-9.92-57.92-25.92-42.88-16.64-69.76-31.36a132 132 0 0 1-44.8-40q-17.92-25.28-17.92-63.04 0-48.64 29.76-80t80.96-39.04q3.2-1.28 3.2-3.84l-1.28-47.36a7.406 7.406 0 0 1 2.24-5.44 7.406 7.406 0 0 1 5.44-2.24h49.92a7.406 7.406 0 0 1 5.44 2.24 7.406 7.406 0 0 1 2.24 5.44l-1.28 48q0 2.56 3.2 3.84 54.4 8.96 86.08 43.52t31.68 85.12v10.88a7.406 7.406 0 0 1-2.24 5.44 7.407 7.407 0 0 1-5.44 2.24h-54.4a7.406 7.406 0 0 1-5.44-2.24 7.406 7.406 0 0 1-2.24-5.44v-7.04q0-30.08-23.36-50.88t-64.32-20.8q-33.92 0-52.48 14.72t-18.56 41.6q0 19.2 9.92 31.36t29.44 22.08q19.52 9.92 59.84 25.28 43.52 17.28 69.44 31.36t44.48 39.36q18.56 25.28 18.56 63.04Z" data-name="Path 7"/></g><g filter="url(#g)"><g fill="none" data-name="shield-solid (1)"><path d="M1023.64 192a65.627 65.627 0 0 1 26.947 5.832l378.671 160.679c44.242 18.7 77.222 62.341 77.021 115.029-1.006 199.491-83.054 564.487-429.549 730.394a122.832 122.832 0 0 1-106.181 0C624.055 1038.027 542.006 673.031 541 473.54c-.2-52.688 32.779-96.327 77.021-115.029l378.873-160.679A64.019 64.019 0 0 1 1023.64 192Z"/><path fill="#fcfcfc" d="M1023.738 282.034 652.286 439.566c-10.784 4.558-23.353 16.103-23.287 33.53.397 78.63 20.559 479.574 379.569 651.474a34.618 34.618 0 0 0 15.072 3.43c5.25 0 10.321-1.154 15.086-3.437 358.997-171.893 379.158-572.837 379.554-651.36.067-17.534-12.502-29.079-23.396-33.684l-371.146-157.485M1023.64 192c9.25 0 18.501 2.011 26.947 5.832l378.671 160.679c44.242 18.702 77.223 62.34 77.021 115.029-1.005 199.49-83.054 564.487-429.549 730.394a122.833 122.833 0 0 1-106.18 0C624.054 1038.027 542.005 673.031 541 473.54c-.2-52.689 32.78-96.327 77.022-115.03l378.872-160.678c8.245-3.821 17.495-5.832 26.746-5.832Z"/></g></g></g><g filter="url(#h)" transform="translate(-.004)"><circle cx="128" cy="128" r="128" fill="#f48575" data-name="Ellipse 2" transform="translate(1338 1347)"/></g><g filter="url(#i)" transform="translate(-.004)"><path fill="#f7b275" d="M1372.516 1210.144a49.488 49.488 0 0 0-49.49 23.078l-16.781 27.191a50.055 50.055 0 0 1-23.906 20.085l-29.784 11.737a49.545 49.545 0 0 0-31.291 44.713l-1.081 32.126a49.681 49.681 0 0 1-10.738 29.502l-19.885 25.161a49.545 49.545 0 0 0-4.77 54.366l15.27 28.136a49.779 49.779 0 0 1 5.403 30.752l-4.56 31.76a49.488 49.488 0 0 0 23.077 49.491l27.192 16.78a50.055 50.055 0 0 1 20.085 23.906l11.737 29.785a49.545 49.545 0 0 0 44.713 31.29l32.063.947a49.767 49.767 0 0 1 29.307 10.667l25.417 20.087a49.545 49.545 0 0 0 54.366 4.77l28.136-15.27a49.779 49.779 0 0 1 30.752-5.403l31.68 4.757a49.488 49.488 0 0 0 49.49-23.078l16.857-27.39a50.056 50.056 0 0 1 23.905-20.084l29.785-11.737a49.545 49.545 0 0 0 31.301-44.719l.942-32.055a49.767 49.767 0 0 1 10.667-29.3l19.88-25.158a49.545 49.545 0 0 0 4.77-54.366l-15.271-28.136a49.779 49.779 0 0 1-5.403-30.752l4.758-31.679a49.488 49.488 0 0 0-23.078-49.49l-27.18-17.117a50.056 50.056 0 0 1-20.085-23.906l-11.737-29.784a49.545 49.545 0 0 0-44.713-31.291l-32.055-.941a49.766 49.766 0 0 1-29.306-10.681l-25.427-20.091a49.545 49.545 0 0 0-54.366-4.771l-28.136 15.271a49.779 49.779 0 0 1-30.752 5.403Zm42.78 156.339a120.015 120.015 0 1 1-58.054 159.493 120.015 120.015 0 0 1 58.051-159.493Z" data-name="Path 4" opacity=".998"/></g><g filter="url(#j)" transform="translate(-.004)"><path fill="#f48575" d="m1356.955 1720.944 8.156 214.86a24.291 24.291 0 0 0 12.998 20.42 23.7 23.7 0 0 0 24.196-1.352l71.013-46.854 74.974 46.48a23.956 23.956 0 0 0 36.62-21.215l-7.33-193.561a48.635 48.635 0 0 1-17.933.583l-31.755-4.56a50.056 50.056 0 0 0-30.752 5.403l-28.136 15.272a49.545 49.545 0 0 1-54.366-4.77l-25.16-19.885a49.767 49.767 0 0 0-29.308-10.666l-3.018-.082Zm240.074 9.714 143.565 130.033a23.956 23.956 0 0 0 39.791-14.416l12.587-87.31 81.538-24.282a24.5 24.5 0 0 0 16.588-17.666 23.888 23.888 0 0 0-7.288-23.082l-159.482-144.3-1.876 2.364a49.767 49.767 0 0 0-10.668 29.305l-.88 32.187a49.545 49.545 0 0 1-31.29 44.713l-29.785 11.737a49.78 49.78 0 0 0-23.906 20.085l-16.718 27.326a49.934 49.934 0 0 1-11.974 13.363Z" data-name="Path 5"/></g></g></g></svg>