<svg xmlns="http://www.w3.org/2000/svg" width="2048" height="2048"><defs><linearGradient id="b" x1=".5" x2=".5" y2="1" gradientUnits="objectBoundingBox"><stop offset="0" stop-color="#70b2a2"/><stop offset="1" stop-color="#5aaa97"/></linearGradient><clipPath id="a"><path d="M0 0h2048v2048H0z"/></clipPath><filter id="c" width="388.205" height="388.205" x="1393.142" y="1374.507" filterUnits="userSpaceOnUse"><feOffset dx="-1" dy="3"/><feGaussianBlur result="blur" stdDeviation="8"/><feFlood flood-color="#414141" flood-opacity=".502"/><feComposite in2="blur" operator="in"/><feComposite in="SourceGraphic"/></filter></defs><g clip-path="url(#a)"><g fill="url(#b)" data-name="Path 3"><path d="M256 0h1536c141.385 0 256 114.615 256 256v1536c0 141.385-114.615 256-256 256H256c-141.385 0-256-114.615-256-256V256C0 114.615 114.615 0 256 0Z"/><path fill="rgba(148,148,148,0.5)" d="M256 1c-17.302 0-34.593 1.743-51.392 5.18a253.705 253.705 0 0 0-47.865 14.859 255.019 255.019 0 0 0-43.315 23.51 256.823 256.823 0 0 0-37.74 31.139 256.823 256.823 0 0 0-31.138 37.74 255.019 255.019 0 0 0-23.511 43.315A253.705 253.705 0 0 0 6.18 204.608C2.743 221.407 1 238.698 1 256v1536c0 17.302 1.743 34.593 5.18 51.392a253.705 253.705 0 0 0 14.859 47.865 255.019 255.019 0 0 0 23.51 43.315 256.835 256.835 0 0 0 31.139 37.74 256.823 256.823 0 0 0 37.74 31.138 255.019 255.019 0 0 0 43.315 23.511 253.723 253.723 0 0 0 47.865 14.858c16.799 3.438 34.09 5.181 51.392 5.181h1536c17.302 0 34.593-1.743 51.392-5.18a253.723 253.723 0 0 0 47.865-14.859 255.019 255.019 0 0 0 43.315-23.51 256.835 256.835 0 0 0 37.74-31.139 256.835 256.835 0 0 0 31.138-37.74 255.019 255.019 0 0 0 23.511-43.315 253.723 253.723 0 0 0 14.858-47.865c3.438-16.799 5.181-34.09 5.181-51.392V256c0-17.302-1.743-34.593-5.18-51.392a253.723 253.723 0 0 0-14.859-47.865 255.019 255.019 0 0 0-23.51-43.315 256.823 256.823 0 0 0-31.139-37.74 256.835 256.835 0 0 0-37.74-31.138 255.019 255.019 0 0 0-43.315-23.511 253.705 253.705 0 0 0-47.865-14.858C1826.593 2.743 1809.302 1 1792 1H256m0-1h1536c141.385 0 256 114.615 256 256v1536c0 141.385-114.615 256-256 256H256c-141.385 0-256-114.615-256-256V256C0 114.615 114.615 0 256 0Z"/></g><g data-name="Group 3"><g fill="none" stroke="#fcfcfc" stroke-width="64" data-name="Rectangle 4"><path stroke="none" d="M1195 1414v88H172v-88z"/><path d="M1163 1446v24H204v-24z"/></g><g fill="none" stroke="#fcfcfc" stroke-width="64" data-name="Rectangle 8"><path stroke="none" d="M1195 1590v88H172v-88z"/><path d="M1163 1622v24H204v-24z"/></g><g fill="none" stroke="#fcfcfc" stroke-width="64" data-name="Rectangle 9"><path stroke="none" d="M677 1766v88H172v-88z"/><path d="M645 1798v24H204v-24z"/></g><g data-name="Group 2"><path fill="#fcfcfc" d="M1176.72 809.68q0 50.56-31.36 83.2t-87.04 39.68q-3.2 1.28-3.2 3.84l.64 42.24a7.648 7.648 0 0 1-7.68 7.68h-49.92a7.648 7.648 0 0 1-7.68-7.68l.64-42.88q0-2.56-3.2-3.84-55.68-8.96-87.36-41.92t-31.68-83.52v-16a7.406 7.406 0 0 1 2.24-5.44 7.406 7.406 0 0 1 5.44-2.24h53.76a7.406 7.406 0 0 1 5.44 2.24 7.406 7.406 0 0 1 2.24 5.44v12.16q0 29.44 24.96 48.96t67.84 19.52q37.76 0 56.64-16.64t18.88-42.88q0-17.92-10.24-30.4t-29.76-22.4q-19.52-9.92-57.92-25.92-42.88-16.64-69.76-31.36a132 132 0 0 1-44.8-40q-17.92-25.28-17.92-63.04 0-48.64 29.76-80t80.96-39.04q3.2-1.28 3.2-3.84l-1.28-47.36a7.406 7.406 0 0 1 2.24-5.44 7.406 7.406 0 0 1 5.44-2.24h49.92a7.406 7.406 0 0 1 5.44 2.24 7.406 7.406 0 0 1 2.24 5.44l-1.28 48q0 2.56 3.2 3.84 54.4 8.96 86.08 43.52t31.68 85.12v10.88a7.406 7.406 0 0 1-2.24 5.44 7.407 7.407 0 0 1-5.44 2.24h-54.4a7.406 7.406 0 0 1-5.44-2.24 7.406 7.406 0 0 1-2.24-5.44v-7.04q0-30.08-23.36-50.88t-64.32-20.8q-33.92 0-52.48 14.72t-18.56 41.6q0 19.2 9.92 31.36t29.44 22.08q19.52 9.92 59.84 25.28 43.52 17.28 69.44 31.36t44.48 39.36q18.56 25.28 18.56 63.04Z" data-name="Path 7"/><g fill="none" data-name="shield-solid (1)"><path d="M1023.64 192a65.627 65.627 0 0 1 26.947 5.832l378.671 160.679c44.242 18.7 77.222 62.341 77.021 115.029-1.006 199.491-83.054 564.487-429.549 730.394a122.832 122.832 0 0 1-106.181 0C624.055 1038.027 542.006 673.031 541 473.54c-.2-52.688 32.779-96.327 77.021-115.029l378.873-160.679A64.019 64.019 0 0 1 1023.64 192Z"/><path fill="#fcfcfc" d="M1023.738 282.034 652.286 439.566c-10.784 4.558-23.353 16.103-23.287 33.53.397 78.63 20.559 479.574 379.569 651.474a34.618 34.618 0 0 0 15.072 3.43c5.25 0 10.321-1.154 15.086-3.437 358.997-171.893 379.158-572.837 379.554-651.36.067-17.534-12.502-29.079-23.396-33.684l-371.146-157.485M1023.64 192c9.25 0 18.501 2.011 26.947 5.832l378.671 160.679c44.242 18.702 77.223 62.34 77.021 115.029-1.005 199.49-83.054 564.487-429.549 730.394a122.833 122.833 0 0 1-106.18 0C624.054 1038.027 542.005 673.031 541 473.54c-.2-52.689 32.78-96.327 77.022-115.03l378.872-160.678c8.245-3.821 17.495-5.832 26.746-5.832Z"/></g></g><g filter="url(#c)" transform="translate(-.004 -.004)"><circle cx="128" cy="128" r="128" fill="#8fd5c3" data-name="Ellipse 2" transform="rotate(25 -2384.204 4140.17)"/></g><path fill="#8fd5c3" d="M1615.454 1286.065a49.488 49.488 0 0 0-54.607 0l-26.7 17.552a50.055 50.055 0 0 1-30.154 8.1l-31.954-1.95a49.545 49.545 0 0 0-47.256 27.3l-14.557 28.659a49.681 49.681 0 0 1-22.2 22.2l-28.655 14.4a49.545 49.545 0 0 0-27.3 47.256l1.95 31.954a49.779 49.779 0 0 1-8.1 30.154l-17.556 26.857a49.488 49.488 0 0 0 0 54.607l17.552 26.7a50.055 50.055 0 0 1 8.1 30.154l-1.95 31.954a49.545 49.545 0 0 0 27.3 47.256l28.659 14.408a49.767 49.767 0 0 1 22.053 22.053l14.547 28.947a49.545 49.545 0 0 0 47.256 27.3l31.954-1.95a49.779 49.779 0 0 1 30.154 8.1l26.7 17.7a49.488 49.488 0 0 0 54.607 0l26.853-17.7a50.056 50.056 0 0 1 30.154-8.1l31.954 1.95a49.545 49.545 0 0 0 47.268-27.3l14.4-28.654a49.767 49.767 0 0 1 22.05-22.046l28.65-14.4a49.545 49.545 0 0 0 27.3-47.256l-1.95-31.954a49.779 49.779 0 0 1 8.1-30.154l17.7-26.7a49.488 49.488 0 0 0 0-54.607l-17.4-27a50.056 50.056 0 0 1-8.1-30.154l1.95-31.954a49.545 49.545 0 0 0-27.3-47.256l-28.654-14.4a49.766 49.766 0 0 1-22.046-22.065l-14.554-28.955a49.545 49.545 0 0 0-47.256-27.3l-31.954 1.95a49.779 49.779 0 0 1-30.154-8.1Zm-27.3 159.771a120.015 120.015 0 1 1-120.019 120.015 120.015 120.015 0 0 1 120.016-120.016Z" data-name="Path 4" opacity=".998"/></g></g></svg>