<svg xmlns="http://www.w3.org/2000/svg" xmlns:xlink="http://www.w3.org/1999/xlink" width="2560" height="1024" viewBox="0 0 2560 1024">
  <defs>
    <linearGradient id="linear-gradient" x1="-27.142" y1="-228.395" x2="29.108" y2="-228.395" gradientUnits="objectBoundingBox">
      <stop offset="0.09" stop-color="#eee"/>
      <stop offset="0.818" stop-color="#d6d7d8"/>
    </linearGradient>
    <linearGradient id="linear-gradient-2" x1="2.29" y1="-8.351" x2="12.29" y2="-8.351" gradientUnits="objectBoundingBox">
      <stop offset="0" stop-color="#eee"/>
      <stop offset="1" stop-color="#d6d7d8"/>
    </linearGradient>
    <clipPath id="clip-path">
      <rect id="Rectangle_8" data-name="Rectangle 8" width="48" height="48"/>
    </clipPath>
    <clipPath id="clip-path-2">
      <rect id="Rectangle_12" data-name="Rectangle 12" width="25.251" height="21.611"/>
    </clipPath>
    <clipPath id="clip-path-3">
      <rect id="Rectangle_52" data-name="Rectangle 52" width="596" height="328" transform="translate(0 0.458)"/>
    </clipPath>
    <linearGradient id="linear-gradient-18" x1="1.599" y1="5.968" x2="4.099" y2="5.968" gradientUnits="objectBoundingBox">
      <stop offset="0" stop-color="#81aef2"/>
      <stop offset="1" stop-color="#78a9ef"/>
    </linearGradient>
    <clipPath id="clip-path-4">
      <rect id="Rectangle_8-2" data-name="Rectangle 8" width="24" height="24"/>
    </clipPath>
    <clipPath id="clip-path-5">
      <rect id="Rectangle_12-2" data-name="Rectangle 12" width="12.626" height="10.806"/>
    </clipPath>
    <linearGradient id="linear-gradient-29" x1="344.568" y1="-217.037" x2="337.396" y2="-134.702" gradientUnits="objectBoundingBox">
      <stop offset="0" stop-color="#a1c3fc"/>
      <stop offset="0.696" stop-color="#81aef2"/>
      <stop offset="1" stop-color="#78a9ef"/>
    </linearGradient>
    <linearGradient id="linear-gradient-30" x1="25.138" y1="25.191" x2="-26.33" y2="77.244" xlink:href="#linear-gradient-29"/>
    <linearGradient id="linear-gradient-31" x1="107.292" y1="-31.87" x2="150.145" y2="27.117" xlink:href="#linear-gradient-29"/>
    <linearGradient id="linear-gradient-32" x1="-53.025" y1="128.51" x2="-48.06" y2="256.574" xlink:href="#linear-gradient"/>
    <linearGradient id="linear-gradient-33" x1="241.089" y1="-306.397" x2="296.924" y2="-306.397" gradientUnits="objectBoundingBox">
      <stop offset="0" stop-color="#23286b"/>
      <stop offset="1" stop-color="#151a4f"/>
    </linearGradient>
    <linearGradient id="linear-gradient-34" x1="346.692" y1="87.147" x2="402.526" y2="87.147" xlink:href="#linear-gradient-33"/>
    <linearGradient id="linear-gradient-35" x1="19.146" y1="-524.5" x2="75.395" y2="-524.5" xlink:href="#linear-gradient-33"/>
    <clipPath id="clip-path-6">
      <rect id="Rectangle_671" data-name="Rectangle 671" width="201" height="201" transform="translate(0.007 0.034)"/>
    </clipPath>
    <clipPath id="clip-desk">
      <rect width="2560" height="1024"/>
    </clipPath>
  </defs>
  <g id="desk" clip-path="url(#clip-desk)">
    <g id="Desk-2" data-name="Desk" transform="translate(17 -161.007)">
      <g id="Desk-3" data-name="Desk" transform="translate(174 981)">
        <g id="Group_126" data-name="Group 126">
          <g id="Group_143" data-name="Group 143">
            <g id="Group_124" data-name="Group 124">
              <rect id="table_top-i4" width="2092" height="85.301" fill="url(#linear-gradient)"/>
            </g>
          </g>
        </g>
      </g>
      <g id="Computer" transform="translate(695.548 195.712)">
        <rect id="Rectangle_15" data-name="Rectangle 15" width="238.797" height="265.543" transform="translate(405.056 507.761)" fill="#d6d7d8"/>
        <rect id="Rectangle_16" data-name="Rectangle 16" width="534.51" height="20.541" transform="translate(257.197 764.747)" fill="#428dfc"/>
        <rect id="Rectangle_17" data-name="Rectangle 17" width="1048.904" height="679.156" fill="url(#linear-gradient-2)"/>
        <rect id="background_theme" width="1012.101" height="559.329" transform="translate(18.402 16.905)" fill="#fff"/>
        <g id="Group_27" data-name="Group 27" transform="translate(-266.936 -238.971)">
          <rect id="Rectangle_19" data-name="Rectangle 19" width="19.47" height="19.47" transform="translate(753.776 881.478) rotate(-135)" fill="#a1c3fc"/>
          <rect id="Rectangle_20" data-name="Rectangle 20" width="19.47" height="19.47" transform="translate(791.334 881.449) rotate(-135)" fill="#fff"/>
          <rect id="Rectangle_21" data-name="Rectangle 21" width="19.47" height="19.47" transform="translate(828.892 881.508) rotate(-135)" fill="#1d72d8"/>
        </g>
        <g id="Stars" transform="translate(147.197 473.019)">
          <g id="Star">
            <path id="Star-2" data-name="Star" d="M25.169,0l7.778,15.8,17.391,2.533-12.584,12.3L40.724,48,25.169,39.8,9.613,48l2.971-17.367L0,18.334,17.391,15.8Z" fill="#f1b505"/>
          </g>
          <g id="Star-3" data-name="Star" transform="translate(58.375)">
            <path id="Star-4" data-name="Star" d="M25.169,0l7.778,15.8,17.391,2.533-12.584,12.3L40.724,48,25.169,39.8,9.613,48l2.971-17.367L0,18.334,17.391,15.8Z" fill="#f1b505"/>
          </g>
          <g id="Star-5" data-name="Star" transform="translate(116.75)">
            <path id="Star-6" data-name="Star" d="M25.169,0l7.778,15.8,17.391,2.533-12.584,12.3L40.724,48,25.169,39.8,9.613,48l2.971-17.367L0,18.334,17.391,15.8Z" fill="#f1b505"/>
          </g>
          <g id="Star-7" data-name="Star" transform="translate(175.125)">
            <path id="Star-8" data-name="Star" d="M25.169,0l7.778,15.8,17.391,2.533-12.584,12.3L40.724,48,25.169,39.8,9.613,48l2.971-17.367L0,18.334,17.391,15.8Z" fill="#f1b505"/>
          </g>
          <g id="Star-9" data-name="Star" transform="translate(233.5)">
            <path id="Star-10" data-name="Star" d="M25.169,0l7.778,15.8,17.391,2.533-12.584,12.3L40.724,48,25.169,39.8,9.613,48l2.971-17.367L0,18.334,17.391,15.8Z" fill="url(#linear-gradient)"/>
          </g>
        </g>
        <g id="Avatar" transform="translate(934.452 33.294)">
          <g id="Group_7" data-name="Group 7">
            <g id="Avatar-2" data-name="Avatar" clip-path="url(#clip-path)">
              <circle id="Ellipse_5" data-name="Ellipse 5" cx="24" cy="24" r="24" fill="#eee"/>
            </g>
          </g>
          <g id="Group_19" data-name="Group 19" transform="translate(10.919 13.194)">
            <g id="Group_18" data-name="Group 18" transform="translate(0 0)">
              <g id="Group_17" data-name="Group 17" clip-path="url(#clip-path-2)">
                <path id="Path_7" data-name="Path 7" d="M16.346,15.761h-.457a8.111,8.111,0,1,0-5.81,0H8.947A9.734,9.734,0,0,0,0,21.76H25.293A9.734,9.734,0,0,0,16.346,15.761Z" transform="translate(0.053 -0.083)" fill="#fff"/>
              </g>
            </g>
          </g>
        </g>
        <g id="Group_335" data-name="Group 335" transform="translate(147.629 248.553)">
          <rect id="table_top-i4-2" data-name="table_top-i4" width="213.642" height="11" transform="translate(-0.177 27.867)" fill="url(#linear-gradient)"/>
          <rect id="table_top-i4-3" data-name="table_top-i4" width="280.786" height="10" transform="translate(-0.177 53.867)" fill="url(#linear-gradient)"/>
          <rect id="table_top-i4-4" data-name="table_top-i4" width="280.786" height="12" transform="translate(-0.177 -0.133)" fill="url(#linear-gradient)"/>
        </g>
        <g id="Group_337" data-name="Group 337" transform="translate(147.629 360.853)">
          <rect id="table_top-i4-5" data-name="table_top-i4" width="213.642" height="11" transform="translate(-0.177 27.867)" fill="url(#linear-gradient)"/>
          <rect id="table_top-i4-6" data-name="table_top-i4" width="280.786" height="10" transform="translate(-0.177 53.867)" fill="url(#linear-gradient)"/>
          <rect id="table_top-i4-7" data-name="table_top-i4" width="280.786" height="12" transform="translate(-0.177 -0.133)" fill="url(#linear-gradient)"/>
        </g>
        <g id="Group_336" data-name="Group 336" transform="translate(621.426 433.678)">
          <rect id="table_top-i4-8" data-name="table_top-i4" width="213.642" height="11" transform="translate(-0.177 27.867)" fill="url(#linear-gradient)"/>
          <rect id="table_top-i4-9" data-name="table_top-i4" width="280.786" height="10" transform="translate(-0.177 53.867)" fill="url(#linear-gradient)"/>
          <rect id="table_top-i4-10" data-name="table_top-i4" width="280.786" height="12" transform="translate(-0.177 -0.133)" fill="url(#linear-gradient)"/>
        </g>
        <g id="Group_338" data-name="Group 338" transform="translate(621.426 145.428)">
          <rect id="table_top-i4-11" data-name="table_top-i4" width="213.642" height="11" transform="translate(-0.177 27.867)" fill="url(#linear-gradient)"/>
          <rect id="table_top-i4-12" data-name="table_top-i4" width="280.786" height="10" transform="translate(-0.177 53.867)" fill="url(#linear-gradient)"/>
          <rect id="table_top-i4-13" data-name="table_top-i4" width="280.786" height="12" transform="translate(-0.177 -0.133)" fill="url(#linear-gradient)"/>
        </g>
        <g id="Web_Element_1" data-name="Web Element 1" transform="translate(199.334 81.294)">
          <rect id="Rectangle_733" data-name="Rectangle 733" width="177.021" height="128" fill="url(#linear-gradient)"/>
          <ellipse id="Ellipse_38" data-name="Ellipse 38" cx="14.428" cy="14.429" rx="14.428" ry="14.429" transform="translate(24.407 23.711)" fill="#fcc817"/>
          <path id="Path_842" data-name="Path 842" d="M20,98.779,45.765,39l68.083,59.8Z" transform="translate(0.612 1.196)" fill="#81aef2"/>
          <path id="Path_843" data-name="Path 843" d="M67,98.319,86.1,54l60.242,44.682Z" transform="translate(2.049 1.657)" fill="#a1c3fc"/>
          <path id="Path_844" data-name="Path 844" d="M95.7,36.41h50.5a6.719,6.719,0,0,0,6.7-6.7h0a6.719,6.719,0,0,0-6.7-6.7H95.7a6.719,6.719,0,0,0-6.7,6.7h0A6.719,6.719,0,0,0,95.7,36.41Z" transform="translate(2.722 0.706)" fill="#fff"/>
          <path id="Path_845" data-name="Path 845" d="M123.636,61.021h21.707a6.7,6.7,0,0,0,6.7-6.7h0a6.7,6.7,0,0,0-6.7-6.7H123.636a6.7,6.7,0,0,0-6.7,6.7h0A6.7,6.7,0,0,0,123.636,61.021Z" transform="translate(3.577 1.461)" fill="#fff"/>
        </g>
        <g id="Web_Element_1-2" data-name="Web Element 1" transform="translate(673.132 257.42)">
          <rect id="Rectangle_733-2" data-name="Rectangle 733" width="177.021" height="128" fill="url(#linear-gradient)"/>
          <ellipse id="Ellipse_38-2" data-name="Ellipse 38" cx="14.428" cy="14.429" rx="14.428" ry="14.429" transform="translate(24.407 23.711)" fill="#fcc817"/>
          <path id="Path_842-2" data-name="Path 842" d="M20,98.779,45.765,39l68.083,59.8Z" transform="translate(0.612 1.196)" fill="#81aef2"/>
          <path id="Path_843-2" data-name="Path 843" d="M67,98.319,86.1,54l60.242,44.682Z" transform="translate(2.049 1.657)" fill="#a1c3fc"/>
          <path id="Path_844-2" data-name="Path 844" d="M95.7,36.41h50.5a6.719,6.719,0,0,0,6.7-6.7h0a6.719,6.719,0,0,0-6.7-6.7H95.7a6.719,6.719,0,0,0-6.7,6.7h0A6.719,6.719,0,0,0,95.7,36.41Z" transform="translate(2.722 0.706)" fill="#fff"/>
          <path id="Path_845-2" data-name="Path 845" d="M123.636,61.021h21.707a6.7,6.7,0,0,0,6.7-6.7h0a6.7,6.7,0,0,0-6.7-6.7H123.636a6.7,6.7,0,0,0-6.7,6.7h0A6.7,6.7,0,0,0,123.636,61.021Z" transform="translate(3.577 1.461)" fill="#fff"/>
        </g>
      </g>
      <g id="Laptop_1" data-name="Laptop 1" transform="translate(1589 652.542)">
        <g id="Group_80" data-name="Group 80">
          <g id="Group_79" data-name="Group 79" clip-path="url(#clip-path-3)">
            <rect id="Rectangle_35" data-name="Rectangle 35" width="506.392" height="328.458" transform="translate(44.922)" fill="url(#linear-gradient-18)"/>
            <rect id="background_theme-2" data-name="background_theme" width="481.889" height="252.977" transform="translate(57.175 25.5)" fill="#fff"/>
            <rect id="Rectangle_37" data-name="Rectangle 37" width="596.237" height="22.441" transform="translate(0 306.018)" fill="#a1c3fc"/>
            <rect id="Rectangle_42" data-name="Rectangle 42" width="7.262" height="7.256" transform="translate(305.15 288.563)" fill="#f6f6f6"/>
            <rect id="Rectangle_50" data-name="Rectangle 50" width="57.175" height="14.281" transform="translate(57.175 310.098)" fill="#85b3ea"/>
            <rect id="Rectangle_51" data-name="Rectangle 51" width="39.493" height="14.281" transform="translate(134.636 310.098)" fill="#85b3ea"/>
            <g id="Stars-2" data-name="Stars" transform="translate(203.387 227.19)">
              <g id="Star-11" data-name="Star">
                <path id="Star-12" data-name="Star" d="M16.779,0l5.185,10.534,11.594,1.689-8.39,8.2L27.149,32l-10.37-5.466L6.409,32,8.39,20.422,0,12.223l11.594-1.689Z" fill="#f1b505"/>
              </g>
              <g id="Star-13" data-name="Star" transform="translate(38.917)">
                <path id="Star-14" data-name="Star" d="M16.779,0l5.185,10.534,11.594,1.689-8.39,8.2L27.149,32l-10.37-5.466L6.409,32,8.39,20.422,0,12.223l11.594-1.689Z" fill="#f1b505"/>
              </g>
              <g id="Star-15" data-name="Star" transform="translate(77.833)">
                <path id="Star-16" data-name="Star" d="M16.779,0l5.185,10.534,11.594,1.689-8.39,8.2L27.149,32l-10.37-5.466L6.409,32,8.39,20.422,0,12.223l11.594-1.689Z" fill="#f1b505"/>
              </g>
              <g id="Star-17" data-name="Star" transform="translate(116.75)">
                <path id="Star-18" data-name="Star" d="M16.779,0l5.185,10.534,11.594,1.689-8.39,8.2L27.149,32l-10.37-5.466L6.409,32,8.39,20.422,0,12.223l11.594-1.689Z" fill="#f1b505"/>
              </g>
              <g id="Star-19" data-name="Star" transform="translate(155.667)">
                <path id="Star-20" data-name="Star" d="M16.779,0l5.185,10.534,11.594,1.689-8.39,8.2L27.149,32l-10.37-5.466L6.409,32,8.39,20.422,0,12.223l11.594-1.689Z" fill="url(#linear-gradient)"/>
              </g>
            </g>
            <g id="Group_339" data-name="Group 339" transform="translate(209.327 138.949)">
              <rect id="table_top-i4-14" data-name="table_top-i4" width="146.087" height="11" transform="translate(-0.177 27.867)" fill="url(#linear-gradient)"/>
              <rect id="table_top-i4-15" data-name="table_top-i4" width="192" height="10" transform="translate(-0.177 53.867)" fill="url(#linear-gradient)"/>
              <rect id="table_top-i4-16" data-name="table_top-i4" width="192" height="12" transform="translate(-0.177 -0.133)" fill="url(#linear-gradient)"/>
            </g>
          </g>
          <g id="Avatar-3" data-name="Avatar" transform="translate(492 36.465)">
            <g id="Group_7-2" data-name="Group 7">
              <g id="Avatar-4" data-name="Avatar" clip-path="url(#clip-path-4)">
                <circle id="Ellipse_5-2" data-name="Ellipse 5" cx="12" cy="12" r="12" fill="#eee"/>
              </g>
            </g>
            <g id="Group_19-2" data-name="Group 19" transform="translate(5.46 6.597)">
              <g id="Group_18-2" data-name="Group 18" transform="translate(0 0)">
                <g id="Group_17-2" data-name="Group 17" clip-path="url(#clip-path-5)">
                  <path id="Path_7-2" data-name="Path 7" d="M8.173,7.881H7.944a4.055,4.055,0,1,0-2.905,0H4.474A4.867,4.867,0,0,0,0,10.88H12.646A4.867,4.867,0,0,0,8.173,7.881Z" transform="translate(0.027 -0.041)" fill="#fff"/>
                </g>
              </g>
            </g>
          </g>
          <g id="Web_Element_1-3" data-name="Web Element 1" transform="translate(253.745 48.465)">
            <rect id="Rectangle_733-3" data-name="Rectangle 733" width="88.511" height="64" fill="url(#linear-gradient)"/>
            <ellipse id="Ellipse_38-3" data-name="Ellipse 38" cx="7.214" cy="7.215" rx="7.214" ry="7.215" transform="translate(12.204 11.855)" fill="#fcc817"/>
            <path id="Path_842-3" data-name="Path 842" d="M20,68.89,32.882,39,66.924,68.9Z" transform="translate(-9.694 -18.902)" fill="#81aef2"/>
            <path id="Path_843-3" data-name="Path 843" d="M67,76.16,76.55,54l30.121,22.341Z" transform="translate(-32.475 -26.172)" fill="#a1c3fc"/>
            <path id="Path_844-3" data-name="Path 844" d="M92.349,29.71H117.6a3.359,3.359,0,0,0,3.349-3.35h0a3.359,3.359,0,0,0-3.349-3.35H92.349A3.359,3.359,0,0,0,89,26.361h0A3.359,3.359,0,0,0,92.349,29.71Z" transform="translate(-43.139 -11.153)" fill="#fff"/>
            <path id="Path_845-3" data-name="Path 845" d="M120.286,54.321H131.14a3.349,3.349,0,0,0,3.349-3.35h0a3.349,3.349,0,0,0-3.349-3.35H120.286a3.349,3.349,0,0,0-3.349,3.35h0A3.349,3.349,0,0,0,120.286,54.321Z" transform="translate(-56.68 -23.081)" fill="#fff"/>
          </g>
        </g>
      </g>
      <g id="Phone" transform="translate(197.884 -4)">
        <g id="Phone_2" data-name="Phone 2" transform="translate(573 744)">
          <g id="Group_331" data-name="Group 331">
            <rect id="Rectangle_715" data-name="Rectangle 715" width="7.707" height="58.497" transform="translate(129.076 41.937)" fill="#428dfc"/>
            <path id="Path_772" data-name="Path 772" d="M132.894,243.285H25.295a13.515,13.515,0,0,1-13.483-13.547V13.547A13.514,13.514,0,0,1,25.295,0H132.9a13.515,13.515,0,0,1,13.483,13.547V229.739A13.515,13.515,0,0,1,132.894,243.285Z" transform="translate(-11.812)" fill="#a1c3fc"/>
            <path id="background_theme-3" data-name="background_theme" d="M137,248.56H34.131a12.989,12.989,0,0,1-12.959-13.018V26.808A12.988,12.988,0,0,1,34.131,13.79H137a12.989,12.989,0,0,1,12.959,13.018V235.544A12.988,12.988,0,0,1,137,248.56Z" transform="translate(-18.284 -9.533)" fill="#fff"/>
            <rect id="Rectangle_718" data-name="Rectangle 718" width="70.214" height="15.915" transform="translate(32.177)" fill="#a1c3fc"/>
            <path id="Path_846" data-name="Path 846" d="M0,0H70.214V13.336H0Z" transform="translate(32.177 229.899)" fill="#a1c3fc"/>
          </g>
        </g>
        <g id="Web_Element_1-4" data-name="Web Element 1" transform="translate(609.881 779.162)">
          <rect id="Rectangle_733-4" data-name="Rectangle 733" width="63.086" height="45.616" fill="url(#linear-gradient)"/>
          <ellipse id="Ellipse_38-4" data-name="Ellipse 38" cx="5.142" cy="5.142" rx="5.142" ry="5.142" transform="translate(8.698 8.45)" fill="#fcc817"/>
          <path id="Path_842-4" data-name="Path 842" d="M20,60.3,29.182,39,53.445,60.311Z" transform="translate(-12.655 -24.675)" fill="#81aef2"/>
          <path id="Path_843-4" data-name="Path 843" d="M67,69.794,73.807,54,95.276,69.923Z" transform="translate(-42.393 -34.165)" fill="#a1c3fc"/>
          <path id="Path_844-4" data-name="Path 844" d="M91.387,27.786h18a2.394,2.394,0,0,0,2.387-2.387h0a2.394,2.394,0,0,0-2.387-2.387h-18A2.394,2.394,0,0,0,89,25.4h0A2.394,2.394,0,0,0,91.387,27.786Z" transform="translate(-56.313 -14.559)" fill="#fff"/>
          <path id="Path_845-4" data-name="Path 845" d="M119.324,52.4h7.736a2.387,2.387,0,0,0,2.387-2.387h0a2.387,2.387,0,0,0-2.387-2.387h-7.736a2.387,2.387,0,0,0-2.387,2.387h0A2.387,2.387,0,0,0,119.324,52.4Z" transform="translate(-73.989 -30.13)" fill="#fff"/>
        </g>
        <g id="Stars-3" data-name="Stars" transform="translate(596.283 941.669)">
          <g id="Star-21" data-name="Star">
            <path id="Star-22" data-name="Star" d="M7.973,0l2.464,5.005,5.509.8L11.96,9.7l.941,5.5-4.928-2.6-4.928,2.6.941-5.5L0,5.808l5.509-.8Z" fill="#f1b505"/>
          </g>
          <g id="Star-23" data-name="Star" transform="translate(18.492)">
            <path id="Star-24" data-name="Star" d="M7.973,0l2.464,5.005,5.509.8L11.96,9.7l.941,5.5-4.928-2.6-4.928,2.6.941-5.5L0,5.808l5.509-.8Z" fill="#f1b505"/>
          </g>
          <g id="Star-25" data-name="Star" transform="translate(36.984)">
            <path id="Star-26" data-name="Star" d="M7.973,0l2.464,5.005,5.509.8L11.96,9.7l.941,5.5-4.928-2.6-4.928,2.6.941-5.5L0,5.808l5.509-.8Z" fill="#f1b505"/>
          </g>
          <g id="Star-27" data-name="Star" transform="translate(55.476)">
            <path id="Star-28" data-name="Star" d="M7.973,0l2.464,5.005,5.509.8L11.96,9.7l.941,5.5-4.928-2.6-4.928,2.6.941-5.5L0,5.808l5.509-.8Z" fill="#f1b505"/>
          </g>
          <g id="Star-29" data-name="Star" transform="translate(73.967)">
            <path id="Star-30" data-name="Star" d="M7.973,0l2.464,5.005,5.509.8L11.96,9.7l.941,5.5-4.928-2.6-4.928,2.6.941-5.5L0,5.808l5.509-.8Z" fill="url(#linear-gradient)"/>
          </g>
        </g>
        <g id="Group_334" data-name="Group 334" transform="translate(595.432 854.84)">
          <rect id="table_top-i4-17" data-name="table_top-i4" width="70" height="11" transform="translate(-0.316 27.867)" fill="url(#linear-gradient)"/>
          <rect id="table_top-i4-18" data-name="table_top-i4" width="92" height="10" transform="translate(-0.316 53.867)" fill="url(#linear-gradient)"/>
          <rect id="table_top-i4-19" data-name="table_top-i4" width="92" height="12" transform="translate(-0.316 -0.133)" fill="url(#linear-gradient)"/>
        </g>
      </g>
      <g id="Lamp" transform="translate(291 356.628)">
        <g id="Group_141" data-name="Group 141" transform="translate(479.884 624.372) rotate(180)">
          <g id="Group_140" data-name="Group 140">
            <g id="Group_139" data-name="Group 139">
              <rect id="lamp_3-i0" width="27.644" height="63.742" transform="translate(380.18 29.851)" fill="url(#linear-gradient-29)"/>
              <path id="lamp_1-i0" d="M354.711,23.008,337.007,0,0,280.469H44.419Z" transform="translate(114.301 343.903)" fill="url(#linear-gradient-30)"/>
              <path id="lamp_2-i0" d="M27.644,0H0L68.333,242.535H95.977Z" transform="translate(380.18 105.72)" fill="url(#linear-gradient-31)"/>
              <path id="lamp_bulb-i0" d="M0,79.913v-.622a79.36,79.36,0,0,1,158.72,0v.622Z" transform="translate(0 544.459)" fill="url(#linear-gradient-32)"/>
              <ellipse id="lamp_2-2-i0" cx="17.704" cy="17.723" rx="17.704" ry="17.723" transform="translate(376.763 83.956)" fill="url(#linear-gradient-33)"/>
              <ellipse id="lamp_1-2-i0" cx="17.704" cy="17.723" rx="17.704" ry="17.723" transform="translate(444.475 336.441)" fill="url(#linear-gradient-34)"/>
              <path id="lamp_base-i0" d="M29.507,29.851H151.264A29.843,29.843,0,0,0,181.082,0H0A29.579,29.579,0,0,0,29.507,29.851Z" transform="translate(285.135)" fill="url(#linear-gradient-35)"/>
            </g>
          </g>
        </g>
      </g>
    </g>
    <g id="Clock" transform="translate(2034 113)">
      <g id="Group_167" data-name="Group 167" transform="translate(47.993 -113.034)">
        <g id="Group_166" data-name="Group 166" clip-path="url(#clip-path-6)">
          <g id="Group_165" data-name="Group 165" transform="translate(0 0)">
            <circle id="Ellipse_20" data-name="Ellipse 20" cx="100.5" cy="100.5" r="100.5" transform="translate(0.007 0.034)" fill="#eee"/>
            <circle id="background_theme-4" data-name="background_theme" cx="87.056" cy="87.056" r="87.056" transform="translate(13.458 13.458)" fill="#fff"/>
            <g id="Group_164" data-name="Group 164" transform="translate(94.784 29.571)">
              <rect id="Rectangle_670" data-name="Rectangle 670" width="11.593" height="74.261" fill="#f1b505"/>
              <path id="Path_468" data-name="Path 468" d="M210.76,205.479l58.836.254-.218,11.169H210.76Z" transform="translate(-210.76 -142.641)" fill="#f1b505"/>
            </g>
          </g>
        </g>
      </g>
    </g>
  </g>
</svg>
