<svg xmlns="http://www.w3.org/2000/svg" width="592" height="570" viewBox="0 0 592 570"><defs><clipPath id="a"><path d="M0 0h592v570H0z"/></clipPath></defs><g clip-path="url(#a)"><path fill="#1d72d8" d="M121.3 191.408h455.676V570H121.3z"/><path fill="#428dfc" d="M106.281 188.074H592v165.151H106.281z"/><path d="M347.627 495.709h-.145a7.454 7.454 0 0 1-7.312-7.589l5.235-279.374a43.17 43.17 0 0 1-16.189-11.333 7.445 7.445 0 0 1-5.4-2.787 268.389 268.389 0 0 1-51.634-106.619c-8.5-36.823-3.061-66.735 15.325-84.215a7.361 7.361 0 0 1 2.025-1.371 26.506 26.506 0 0 1 20.739-.6c13.292 4.94 23.553 18.821 28.725 30.165a193 193 0 0 1 15.794 53.77c9.2-26.879 20.355-52.336 47.382-57.894a21.953 21.953 0 0 1 19.67 5.354c14.443 12.868 17.466 44.341 15.98 61.154a76 76 0 0 1-2.815 14.9c14.4-3.491 28.986-3.17 43.6 2.977 8.616 3.625 15.277 11.27 18.758 21.526 4.866 14.354 3.042 32.33-4.65 45.8-12.034 21.064-38.994 33.246-77.958 35.228-16.185 1.047-35.751-1.852-54.419-7.682l-5.276 281.293a7.436 7.436 0 0 1-7.435 7.297zm.786-308.869c21.241 9.235 46.1 14.336 65.489 13.076 23.565-1.2 54.01-6.978 65.876-27.74 5.589-9.779 6.985-23.292 3.481-33.626-1.478-4.359-4.487-10.085-10.421-12.581-14.822-6.236-30.352-4.53-45.975 1.684-16.283 26.991-47.771 45.422-78.451 59.187zM296.834 15.524c-18.349 18.661-14.257 51.206-10.114 69.141a253.442 253.442 0 0 0 34.352 80.734c2.424-10.469 8.187-20.11 14.137-30.076l.64-1.073a95.511 95.511 0 0 0 5.034-9.791c2.58-28.638-2.565-58.024-15.452-86.3-4.863-10.666-13.046-19.656-20.355-22.375a11.754 11.754 0 0 0-8.242-.26zm58.7 112.662a174.993 174.993 0 0 1-7.3 34.908c21.427-17.655 44.393-36.554 68.095-47.276a61.257 61.257 0 0 0 6.65-22.766c1.5-17.044-2.658-41.249-11.047-48.718a7.1 7.1 0 0 0-6.743-1.878c-21.878 4.5-30.453 30.4-39.526 57.816-3.117 9.398-6.301 19.006-10.132 27.914z" fill="#e94a47"/><path d="M7.458 329.421a7.46 7.46 0 0 1-6.944-10.169c9.8-25.065 34.265-42.348 60.168-60.64 22.853-16.139 46.481-32.829 59.706-55.268 8.2-13.918 11.442-29.994 14.874-47.016 2.472-12.246 5.023-24.9 9.6-36.957 7.651-20.17 25.24-37.9 43.767-44.125 12.745-4.269 25.046-3.051 35.587 3.558 8.642 5.417 14.264 13.378 19.7 21.071l1.456 2.056a295.521 295.521 0 0 0 90.222 82.728 7.45 7.45 0 1 1-7.562 12.838 310.458 310.458 0 0 1-94.806-86.931l-1.486-2.1c-4.8-6.8-9.331-13.214-15.437-17.037-6.724-4.214-14.435-4.91-22.92-2.056-14.3 4.8-28.513 19.309-34.574 35.28-4.14 10.912-6.464 22.427-8.925 34.617-3.526 17.48-7.171 35.556-16.647 51.632-14.845 25.2-39.805 42.832-63.943 59.876-24.023 16.966-46.716 33-54.885 53.9a7.478 7.478 0 0 1-6.951 4.743z" fill="#e94a47"/></g></svg>