<svg xmlns="http://www.w3.org/2000/svg" width="1280" height="1280" viewBox="0 0 1280 1280"><defs><linearGradient id="linear-gradient" y1=".5" x2="1" y2=".5" gradientUnits="objectBoundingBox"><stop offset="0" stop-color="#a1c3fc"/><stop offset="1" stop-color="#81aef2"/></linearGradient><clipPath id="clip-message-sent"><path d="M0 0h1280v1280H0z"/></clipPath></defs><g id="message-sent" clip-path="url(#clip-message-sent)"><path fill="#fff" d="M0 0h1280v1280H0z"/><g id="Group_326" data-name="Group 326" transform="translate(-79 -42)"><g id="Fireworks" transform="translate(1248.378 1213.969) rotate(172)"><g id="Group_325" data-name="Group 325" transform="translate(866.235 821.992) rotate(180)"><g id="Group_324" data-name="Group 324" transform="translate(0)"><path id="texture-2_5_-i0" d="M444.376 433.864a3.544 3.544 0 1 1 4.152 2.823 3.528 3.528 0 0 1-4.152-2.823zm78.117-356.58a3.647 3.647 0 0 1-.993-5.055 3.31 3.31 0 0 1 4.572-1.056 1.629 1.629 0 0 1 .376.283 3.525 3.525 0 0 1 1.087 4.834 3.666 3.666 0 0 1-5.042.994zM494.5 260.433a3.963 3.963 0 0 1-2.8-4.426 3.692 3.692 0 1 1 7.2 1.618 3.975 3.975 0 0 1-4.4 2.808zM24.867 320.8a6.927 6.927 0 0 1-5.708-7.827 6.571 6.571 0 0 1 7.2-5.854 2.154 2.154 0 0 1 .356.054A6.927 6.927 0 0 1 32.424 315a6.733 6.733 0 0 1-7.557 5.8zm162.747 23.723a6.856 6.856 0 0 1 2.105-13.548 6.746 6.746 0 0 1 5.784 7.588 7.308 7.308 0 0 1-7.889 5.962zm163.037 23.6a6.708 6.708 0 0 1-5.725-7.583 2.262 2.262 0 0 0 .038-.223 6.571 6.571 0 0 1 7.2-5.854 2.151 2.151 0 0 1 .356.054 7.31 7.31 0 0 1 5.935 7.917 6.925 6.925 0 0 1-7.804 5.69zM115.727 662.037a6.754 6.754 0 1 1 8.23 5.135 6.979 6.979 0 0 1-8.23-5.135zm159.563-40.715a6.754 6.754 0 1 1 8.23 5.135 6.974 6.974 0 0 1-8.23-5.135zm-71.484-581.73a6.9 6.9 0 0 1-2.246-9.43 6.636 6.636 0 0 1 9.1-2.394.239.239 0 0 1 .059.036 6.575 6.575 0 0 1 2.827 8.824c-.079.149-.156.3-.251.475a7.248 7.248 0 0 1-9.489 2.489zm141.611 84.446a7.272 7.272 0 0 1-2.489-9.5 6.845 6.845 0 0 1 11.732 7.051c-.02.039-.051.09-.059.11a6.621 6.621 0 0 1-9.074 2.4.618.618 0 0 0-.11-.061zm141.373 84.344a6.539 6.539 0 0 1-2.5-8.9 1.573 1.573 0 0 1 .169-.267 6.751 6.751 0 0 1 9.174-2.682c.11.059.2.1.3.157a6.846 6.846 0 0 1-7.053 11.737.513.513 0 0 0-.09-.045zM159.624 818.01a6.156 6.156 0 0 1 3.617-7.791 6.076 6.076 0 0 1 4.142 11.423 6.111 6.111 0 0 1-7.759-3.632zm33.058-616.636a6.454 6.454 0 0 1-2.906-8.367 5.858 5.858 0 0 1 7.782-2.877c.09.051.148.08.235.128a6.049 6.049 0 0 1 3.034 8.015c-.021.039-.036.064-.059.11a6.337 6.337 0 0 1-8.087 2.99zM325.4 264.032a6.054 6.054 0 0 1-2.768-8.043 5.858 5.858 0 0 1 7.782-2.877c.09.051.148.08.235.128a6.092 6.092 0 0 1 3.06 8.027c-.02.039-.036.064-.059.11a6.246 6.246 0 0 1-8.25 2.654zM458.472 327.1a6.092 6.092 0 0 1-3.06-8.027c.02-.039.036-.064.059-.11a5.718 5.718 0 0 1 7.508-3.029 3.828 3.828 0 0 1 .524.259 6.092 6.092 0 0 1 3.06 8.027c-.02.039-.036.064-.059.11a6.186 6.186 0 0 1-8.033 2.769zm-267.2 197.673a6.166 6.166 0 0 1-5.654-6.52 6 6 0 0 1 6.258-5.757 6.147 6.147 0 1 1-.6 12.276zm146.835 6.915a5.848 5.848 0 0 1-5.764-5.911 2.069 2.069 0 0 0 0-.357 6 6 0 0 1 6.258-5.757 6.4 6.4 0 0 1 5.971 6.358 6.112 6.112 0 0 1-6.465 5.667zM422.8 10.1a5.809 5.809 0 0 1 .2-8.166c.1-.082.177-.185.266-.244a6.047 6.047 0 0 1 8.555.175 1.379 1.379 0 0 1 .138.154 6.306 6.306 0 0 1-.568 8.654 5.946 5.946 0 0 1-8.427-.357 1.073 1.073 0 0 0-.161-.216zm98.834 109.291a6.293 6.293 0 0 1 .338-8.729 6.155 6.155 0 0 1 8.335 9.05 5.968 5.968 0 0 1-8.45-.064 1.3 1.3 0 0 1-.223-.257zM6.573 787.694a7.3 7.3 0 0 1-6.565-7.622 7.038 7.038 0 0 1 7.347-6.661 7.223 7.223 0 0 1 6.565 7.622 7.038 7.038 0 0 1-7.347 6.661zm169.384 9.761a7.028 7.028 0 1 1 7.347-6.661 7.025 7.025 0 0 1-7.347 6.661zM312.9 139.929a7.427 7.427 0 0 1 .619-10.188 7.095 7.095 0 0 1 9.307 10.7 7.171 7.171 0 0 1-9.926-.516zm112.765 127.193a7.249 7.249 0 0 1 .517-9.962 7 7 0 0 1 9.921.527 7.035 7.035 0 1 1-10.438 9.435zM162.131 478.88a7.522 7.522 0 0 1-3.27-9.538 7.075 7.075 0 0 1 9.422-3.047 6.933 6.933 0 0 1 3.4 9.186c-.02.039-.051.09-.069.128a7.052 7.052 0 0 1-9.484 3.27zm152.844 74.248a7.151 7.151 0 0 1-3.282-9.512l.008-.021a6.819 6.819 0 0 1 9.164-3.131 7.01 7.01 0 0 1 3.277 9.32 6.9 6.9 0 0 1-9.166 3.345zm-227.958 15a6.986 6.986 0 1 1 9.368-3.609 7.094 7.094 0 0 1-9.368 3.609zm155.042 67.52a7.1 7.1 0 0 1 5.554-13.07 7.5 7.5 0 0 1 3.812 9.463 7.274 7.274 0 0 1-9.366 3.607zm109.712-302.52a7.216 7.216 0 0 1 .3-10.054 7.046 7.046 0 0 1 10.011 9.9 1.3 1.3 0 0 1-.228.213 6.963 6.963 0 0 1-9.916.09.768.768 0 0 1-.164-.146z" transform="translate(59.07 0)" fill="#fbb03b"/><g id="Group_321" data-name="Group 321" transform="translate(277.587 343.14)"><path id="Path_763" data-name="Path 763" d="M2.467 0a2.421 2.421 0 0 0-1.374.421 2.484 2.484 0 0 0-.67 3.445c.816 1.22 82.8 122.331 181.794 148.65a2.478 2.478 0 0 0 1.266-4.791C86.271 121.884 5.332 2.312 4.526 1.11A2.455 2.455 0 0 0 2.467 0z" transform="translate(0)" fill="#fbb03b"/></g><g id="Group_322" data-name="Group 322" transform="translate(344.311 268.702)"><path id="Path_764" data-name="Path 764" d="M2.474 0A2.479 2.479 0 0 0 .883 4.377C2.576 5.811 172.93 147.99 372.977 161.276a2.51 2.51 0 0 0 2.63-2.312 2.475 2.475 0 0 0-2.3-2.641C174.9 143.153 5.751 2.006 4.063.583A2.462 2.462 0 0 0 2.474 0z" transform="translate(0 0)" fill="#fbb03b"/></g><g id="Group_323" data-name="Group 323" transform="translate(98.202 379.166)"><path id="Path_765" data-name="Path 765" d="M76.6 0a2.465 2.465 0 0 0-2.392 1.88C62.349 49.5 1.743 89.322 1.129 89.72A2.484 2.484 0 0 0 .4 93.149a2.457 2.457 0 0 0 3.415.732C6.373 92.219 66.662 52.606 79 3.072A2.481 2.481 0 0 0 77.2.064 2.755 2.755 0 0 0 76.6 0z" transform="translate(0 0)" fill="#fbb03b"/></g><path id="Rectangle_712" data-name="Rectangle 712" transform="matrix(0.842, 0.539, -0.539, 0.842, 510.701, 499.001)" fill="#23286b" d="M0 0h60.63v60.861H0z"/><path id="Rectangle_713" data-name="Rectangle 713" transform="translate(0 467.507) rotate(-17.752)" fill="#23286b" d="M0 0h60.635v60.878H0z"/><path id="Rectangle_714" data-name="Rectangle 714" transform="matrix(0.842, 0.539, -0.539, 0.842, 797.942, 378.364)" fill="#e94a47" d="M0 0h81.086v81.395H0z"/></g></g></g><g id="Fireworks-2" data-name="Fireworks" transform="matrix(0.921, 0.391, -0.391, 0.921, 291.743, -179.901)"><g id="Group_325-2" data-name="Group 325" transform="translate(1228.013 821.992) rotate(180)"><g id="Group_324-2" data-name="Group 324" transform="translate(0)"><path id="texture-2_5_-i0-2" data-name="texture-2_5_-i0" d="M444.376 433.865a3.544 3.544 0 1 1 4.152 2.823 3.528 3.528 0 0 1-4.152-2.823zm78.117-356.58a3.647 3.647 0 0 1-.993-5.055 3.31 3.31 0 0 1 4.572-1.056 1.629 1.629 0 0 1 .376.283 3.525 3.525 0 0 1 1.087 4.834 3.666 3.666 0 0 1-5.042.994zM494.5 260.433a3.963 3.963 0 0 1-2.8-4.426 3.692 3.692 0 1 1 7.2 1.618 3.975 3.975 0 0 1-4.4 2.808zM24.867 320.8a6.927 6.927 0 0 1-5.708-7.827 6.571 6.571 0 0 1 7.2-5.854 2.154 2.154 0 0 1 .356.054A6.927 6.927 0 0 1 32.424 315a6.733 6.733 0 0 1-7.557 5.8zm162.747 23.723a6.856 6.856 0 0 1 2.105-13.548 6.746 6.746 0 0 1 5.784 7.588 7.308 7.308 0 0 1-7.889 5.962zm163.037 23.6a6.708 6.708 0 0 1-5.725-7.583 2.262 2.262 0 0 0 .038-.223 6.571 6.571 0 0 1 7.2-5.854 2.151 2.151 0 0 1 .356.054 7.31 7.31 0 0 1 5.935 7.917 6.925 6.925 0 0 1-7.804 5.69zM115.727 662.037a6.754 6.754 0 1 1 8.23 5.135 6.979 6.979 0 0 1-8.23-5.135zm159.563-40.715a6.754 6.754 0 1 1 8.23 5.135 6.974 6.974 0 0 1-8.23-5.135zm-71.484-581.73a6.9 6.9 0 0 1-2.246-9.43 6.636 6.636 0 0 1 9.1-2.394.239.239 0 0 1 .059.036 6.575 6.575 0 0 1 2.827 8.824c-.079.149-.156.3-.251.475a7.248 7.248 0 0 1-9.489 2.489zm141.611 84.446a7.272 7.272 0 0 1-2.489-9.5 6.845 6.845 0 0 1 11.732 7.051c-.02.039-.051.09-.059.11a6.621 6.621 0 0 1-9.074 2.4.618.618 0 0 0-.11-.061zm141.373 84.344a6.539 6.539 0 0 1-2.5-8.9 1.573 1.573 0 0 1 .169-.267 6.751 6.751 0 0 1 9.174-2.682c.11.059.2.1.3.157a6.846 6.846 0 0 1-7.053 11.737.513.513 0 0 0-.09-.045zM159.624 818.01a6.156 6.156 0 0 1 3.617-7.791 6.076 6.076 0 0 1 4.142 11.423 6.111 6.111 0 0 1-7.759-3.632zm33.058-616.636a6.454 6.454 0 0 1-2.906-8.367 5.858 5.858 0 0 1 7.782-2.877c.09.051.148.08.235.128a6.049 6.049 0 0 1 3.034 8.015c-.021.039-.036.064-.059.11a6.337 6.337 0 0 1-8.087 2.99zM325.4 264.032a6.054 6.054 0 0 1-2.768-8.043 5.858 5.858 0 0 1 7.782-2.877c.09.051.148.08.235.128a6.092 6.092 0 0 1 3.06 8.027c-.02.039-.036.064-.059.11a6.246 6.246 0 0 1-8.25 2.654zM458.472 327.1a6.092 6.092 0 0 1-3.06-8.027c.02-.039.036-.064.059-.11a5.718 5.718 0 0 1 7.508-3.029 3.828 3.828 0 0 1 .524.259 6.092 6.092 0 0 1 3.06 8.027c-.02.039-.036.064-.059.11a6.186 6.186 0 0 1-8.033 2.769zm-267.2 197.673a6.166 6.166 0 0 1-5.654-6.52 6 6 0 0 1 6.258-5.757 6.147 6.147 0 1 1-.6 12.276zm146.835 6.915a5.848 5.848 0 0 1-5.764-5.911 2.069 2.069 0 0 0 0-.357 6 6 0 0 1 6.258-5.757 6.4 6.4 0 0 1 5.971 6.358 6.112 6.112 0 0 1-6.465 5.667zM422.8 10.1a5.809 5.809 0 0 1 .2-8.166c.1-.082.177-.185.266-.244a6.047 6.047 0 0 1 8.555.175 1.379 1.379 0 0 1 .138.154 6.306 6.306 0 0 1-.568 8.654 5.946 5.946 0 0 1-8.427-.357 1.073 1.073 0 0 0-.161-.216zm98.834 109.291a6.293 6.293 0 0 1 .338-8.729 6.155 6.155 0 0 1 8.335 9.05 5.968 5.968 0 0 1-8.45-.064 1.3 1.3 0 0 1-.223-.257zM6.573 787.694a7.3 7.3 0 0 1-6.565-7.622 7.038 7.038 0 0 1 7.347-6.661 7.223 7.223 0 0 1 6.565 7.622 7.038 7.038 0 0 1-7.347 6.661zm169.384 9.761a7.028 7.028 0 1 1 7.347-6.661 7.025 7.025 0 0 1-7.347 6.661zM312.9 139.929a7.427 7.427 0 0 1 .619-10.188 7.095 7.095 0 0 1 9.307 10.7 7.171 7.171 0 0 1-9.926-.516zm112.765 127.193a7.249 7.249 0 0 1 .517-9.962 7 7 0 0 1 9.921.527 7.035 7.035 0 1 1-10.438 9.435zM162.131 478.88a7.522 7.522 0 0 1-3.27-9.538 7.075 7.075 0 0 1 9.422-3.047 6.933 6.933 0 0 1 3.4 9.186c-.02.039-.051.09-.069.128a7.052 7.052 0 0 1-9.484 3.27zm152.844 74.248a7.151 7.151 0 0 1-3.282-9.512l.008-.021a6.819 6.819 0 0 1 9.164-3.131 7.01 7.01 0 0 1 3.277 9.32 6.9 6.9 0 0 1-9.166 3.345zm-227.958 15a6.986 6.986 0 1 1 9.368-3.609 7.094 7.094 0 0 1-9.368 3.609zm155.042 67.52a7.1 7.1 0 0 1 5.554-13.07 7.5 7.5 0 0 1 3.812 9.463 7.274 7.274 0 0 1-9.366 3.607zm109.712-302.52a7.216 7.216 0 0 1 .3-10.054 7.046 7.046 0 0 1 10.011 9.9 1.3 1.3 0 0 1-.228.213 6.963 6.963 0 0 1-9.916.09.768.768 0 0 1-.164-.146z" transform="translate(420.858)" fill="#fbb03b"/><g id="Group_321-2" data-name="Group 321" transform="translate(639.376 343.14)"><path id="Path_763-2" data-name="Path 763" d="M2.467 0a2.421 2.421 0 0 0-1.374.421 2.484 2.484 0 0 0-.67 3.445c.816 1.22 82.8 122.331 181.794 148.65a2.478 2.478 0 0 0 1.266-4.791C86.271 121.884 5.332 2.312 4.526 1.11A2.455 2.455 0 0 0 2.467 0z" fill="#fbb03b"/></g><g id="Group_322-2" data-name="Group 322" transform="translate(706.099 268.702)"><path id="Path_764-2" data-name="Path 764" d="M2.474 0A2.479 2.479 0 0 0 .883 4.377C2.576 5.811 172.93 147.99 372.977 161.276a2.51 2.51 0 0 0 2.63-2.312 2.475 2.475 0 0 0-2.3-2.641C174.9 143.153 5.751 2.006 4.063.583A2.462 2.462 0 0 0 2.474 0z" fill="#fbb03b"/></g><g id="Group_323-2" data-name="Group 323" transform="translate(459.991 379.166)"><path id="Path_765-2" data-name="Path 765" d="M76.6 0a2.465 2.465 0 0 0-2.392 1.88C62.349 49.5 1.743 89.322 1.129 89.72A2.484 2.484 0 0 0 .4 93.149a2.457 2.457 0 0 0 3.415.732C6.373 92.219 66.662 52.606 79 3.072A2.481 2.481 0 0 0 77.2.064 2.755 2.755 0 0 0 76.6 0z" fill="#fbb03b"/></g><path id="Rectangle_712-2" data-name="Rectangle 712" transform="translate(872.49 499.001) rotate(32.624)" fill="#23286b" d="M0 0h60.63v60.861H0z"/><path id="Rectangle_713-2" data-name="Rectangle 713" transform="translate(361.788 467.507) rotate(-17.752)" fill="#23286b" d="M0 0h60.635v60.878H0z"/><path id="Rectangle_714-2" data-name="Rectangle 714" transform="translate(1159.73 378.364) rotate(32.624)" fill="#e94a47" d="M0 0h81.086v81.395H0z"/></g></g></g><g id="Paper_airplane" data-name="Paper airplane" transform="matrix(0.998, -0.07, 0.07, 0.998, 222.873, 487.391)"><path id="Path_846" data-name="Path 846" d="M47.49 126v222.8a6.046 6.046 0 0 0 8.9 5.333L624.021 50.734z" transform="translate(96.077 102.638)" fill="#89b3f4"/><path id="Path_847" data-name="Path 847" d="M876.224 49.241 39.649 171.462c13.625-6.055 20-22.22 13.332-37.634l821.211-99.14a7.347 7.347 0 0 1 8.28 7.328 7.35 7.35 0 0 1-6.248 7.225z" transform="translate(80.213 70.052)" fill="#78a9ef"/><path id="Path_848" data-name="Path 848" d="M115.025 165.511 2.633 308.87c-7.307 9.317 1.747 22.5 13.066 19.021L954.892 39.4l-832.1 121.607a12.093 12.093 0 0 0-7.767 4.504z" transform="translate(0 79.708)" fill="#a1c3fc"/><path id="Path_849" data-name="Path 849" d="M44.32 195.152 104.827 8.367A12.092 12.092 0 0 1 118 .117l749.581 104.614-810.19 106.138a12.092 12.092 0 0 1-13.071-15.717z" transform="translate(88.445 0)" fill="url(#linear-gradient)"/></g></g></g></svg>