<svg xmlns="http://www.w3.org/2000/svg" width="1208.515" height="1414" viewBox="0 0 1208.515 1414"><defs><linearGradient id="linear-gradient" x1="-27.142" y1="-228.395" x2="29.108" y2="-228.395" gradientUnits="objectBoundingBox"><stop offset=".09" stop-color="#eee"/><stop offset=".818" stop-color="#d6d7d8"/></linearGradient><linearGradient id="linear-gradient-6" x1="-3.42" y1="3.631" x2="-2.615" y2="3.631" gradientUnits="objectBoundingBox"><stop offset="0" stop-color="#92c4fe"/><stop offset="1" stop-color="#5babf2"/></linearGradient><linearGradient id="linear-gradient-7" x1="-8.186" y1="12.215" x2="-7.026" y2="12.215" gradientUnits="objectBoundingBox"><stop offset="0" stop-color="#ff4945"/><stop offset="1" stop-color="#f92424"/></linearGradient></defs><g id="phone-celebration" transform="translate(722 -130)"><g id="Fireworks" transform="translate(-766.99 139)"><g id="Group_325" data-name="Group 325" transform="translate(1273.013 812.992) rotate(180)"><g id="Group_324" data-name="Group 324" transform="translate(0)"><path id="texture-2_5_-i0" d="M444.376 433.865a3.544 3.544 0 1 1 4.152 2.823 3.528 3.528 0 0 1-4.152-2.823zm78.117-356.58a3.647 3.647 0 0 1-.993-5.055 3.31 3.31 0 0 1 4.572-1.056 1.629 1.629 0 0 1 .376.283 3.525 3.525 0 0 1 1.087 4.834 3.666 3.666 0 0 1-5.042.994zM494.5 260.433a3.963 3.963 0 0 1-2.8-4.426 3.692 3.692 0 1 1 7.2 1.618 3.975 3.975 0 0 1-4.4 2.808zM24.867 320.8a6.927 6.927 0 0 1-5.708-7.827 6.571 6.571 0 0 1 7.2-5.854 2.154 2.154 0 0 1 .356.054A6.927 6.927 0 0 1 32.424 315a6.733 6.733 0 0 1-7.557 5.8zm162.747 23.723a6.856 6.856 0 0 1 2.105-13.548 6.746 6.746 0 0 1 5.784 7.588 7.308 7.308 0 0 1-7.889 5.962zm163.037 23.6a6.708 6.708 0 0 1-5.725-7.583 2.262 2.262 0 0 0 .038-.223 6.571 6.571 0 0 1 7.2-5.854 2.151 2.151 0 0 1 .356.054 7.31 7.31 0 0 1 5.935 7.917 6.925 6.925 0 0 1-7.804 5.69zM115.727 662.037a6.754 6.754 0 1 1 8.23 5.135 6.979 6.979 0 0 1-8.23-5.135zm159.563-40.715a6.754 6.754 0 1 1 8.23 5.135 6.974 6.974 0 0 1-8.23-5.135zm-71.484-581.73a6.9 6.9 0 0 1-2.246-9.43 6.636 6.636 0 0 1 9.1-2.394.239.239 0 0 1 .059.036 6.575 6.575 0 0 1 2.827 8.824c-.079.149-.156.3-.251.475a7.248 7.248 0 0 1-9.489 2.489zm141.611 84.446a7.272 7.272 0 0 1-2.489-9.5 6.845 6.845 0 0 1 11.732 7.051c-.02.039-.051.09-.059.11a6.621 6.621 0 0 1-9.074 2.4.618.618 0 0 0-.11-.061zm141.373 84.344a6.539 6.539 0 0 1-2.5-8.9 1.573 1.573 0 0 1 .169-.267 6.751 6.751 0 0 1 9.174-2.682c.11.059.2.1.3.157a6.846 6.846 0 0 1-7.053 11.737.513.513 0 0 0-.09-.045zM159.624 818.01a6.156 6.156 0 0 1 3.617-7.791 6.076 6.076 0 0 1 4.142 11.423 6.111 6.111 0 0 1-7.759-3.632zm33.058-616.636a6.454 6.454 0 0 1-2.906-8.367 5.858 5.858 0 0 1 7.782-2.877c.09.051.148.08.235.128a6.049 6.049 0 0 1 3.034 8.015c-.021.039-.036.064-.059.11a6.337 6.337 0 0 1-8.087 2.99zM325.4 264.032a6.054 6.054 0 0 1-2.768-8.043 5.858 5.858 0 0 1 7.782-2.877c.09.051.148.08.235.128a6.092 6.092 0 0 1 3.06 8.027c-.02.039-.036.064-.059.11a6.246 6.246 0 0 1-8.25 2.654zM458.472 327.1a6.092 6.092 0 0 1-3.06-8.027c.02-.039.036-.064.059-.11a5.718 5.718 0 0 1 7.508-3.029 3.828 3.828 0 0 1 .524.259 6.092 6.092 0 0 1 3.06 8.027c-.02.039-.036.064-.059.11a6.186 6.186 0 0 1-8.033 2.769zm-267.2 197.673a6.166 6.166 0 0 1-5.654-6.52 6 6 0 0 1 6.258-5.757 6.147 6.147 0 1 1-.6 12.276zm146.835 6.915a5.848 5.848 0 0 1-5.764-5.911 2.069 2.069 0 0 0 0-.357 6 6 0 0 1 6.258-5.757 6.4 6.4 0 0 1 5.971 6.358 6.112 6.112 0 0 1-6.465 5.667zM422.8 10.1a5.809 5.809 0 0 1 .2-8.166c.1-.082.177-.185.266-.244a6.047 6.047 0 0 1 8.555.175 1.379 1.379 0 0 1 .138.154 6.306 6.306 0 0 1-.568 8.654 5.946 5.946 0 0 1-8.427-.357 1.073 1.073 0 0 0-.161-.216zm98.834 109.291a6.293 6.293 0 0 1 .338-8.729 6.155 6.155 0 0 1 8.335 9.05 5.968 5.968 0 0 1-8.45-.064 1.3 1.3 0 0 1-.223-.257zM6.573 787.694a7.3 7.3 0 0 1-6.565-7.622 7.038 7.038 0 0 1 7.347-6.661 7.223 7.223 0 0 1 6.565 7.622 7.038 7.038 0 0 1-7.347 6.661zm169.384 9.761a7.028 7.028 0 1 1 7.347-6.661 7.025 7.025 0 0 1-7.347 6.661zM312.9 139.929a7.427 7.427 0 0 1 .619-10.188 7.095 7.095 0 0 1 9.307 10.7 7.171 7.171 0 0 1-9.926-.516zm112.765 127.193a7.249 7.249 0 0 1 .517-9.962 7 7 0 0 1 9.921.527 7.035 7.035 0 1 1-10.438 9.435zM162.131 478.88a7.522 7.522 0 0 1-3.27-9.538 7.075 7.075 0 0 1 9.422-3.047 6.933 6.933 0 0 1 3.4 9.186c-.02.039-.051.09-.069.128a7.052 7.052 0 0 1-9.484 3.27zm152.844 74.248a7.151 7.151 0 0 1-3.282-9.512l.008-.021a6.819 6.819 0 0 1 9.164-3.131 7.01 7.01 0 0 1 3.277 9.32 6.9 6.9 0 0 1-9.166 3.345zm-227.958 15a6.986 6.986 0 1 1 9.368-3.609 7.094 7.094 0 0 1-9.368 3.609zm155.042 67.52a7.1 7.1 0 0 1 5.554-13.07 7.5 7.5 0 0 1 3.812 9.463 7.274 7.274 0 0 1-9.366 3.607zm109.712-302.52a7.216 7.216 0 0 1 .3-10.054 7.046 7.046 0 0 1 10.011 9.9 1.3 1.3 0 0 1-.228.213 6.963 6.963 0 0 1-9.916.09.768.768 0 0 1-.164-.146z" transform="translate(420.858)" fill="#fbb03b"/><g id="Group_321" data-name="Group 321" transform="translate(639.376 343.14)"><path id="Path_763" data-name="Path 763" d="M2.467 0a2.421 2.421 0 0 0-1.374.421 2.484 2.484 0 0 0-.67 3.445c.816 1.22 82.8 122.331 181.794 148.65a2.478 2.478 0 0 0 1.266-4.791C86.271 121.884 5.332 2.312 4.526 1.11A2.455 2.455 0 0 0 2.467 0z" fill="#fbb03b"/></g><g id="Group_322" data-name="Group 322" transform="translate(706.099 268.702)"><path id="Path_764" data-name="Path 764" d="M2.474 0A2.479 2.479 0 0 0 .883 4.377C2.576 5.811 172.93 147.99 372.977 161.276a2.51 2.51 0 0 0 2.63-2.312 2.475 2.475 0 0 0-2.3-2.641C174.9 143.153 5.751 2.006 4.063.583A2.462 2.462 0 0 0 2.474 0z" fill="#fbb03b"/></g><g id="Group_323" data-name="Group 323" transform="translate(186.202 378.364)"><path id="Path_765" data-name="Path 765" d="M76.6 0a2.465 2.465 0 0 0-2.392 1.88C62.349 49.5 1.743 89.322 1.129 89.72A2.484 2.484 0 0 0 .4 93.149a2.457 2.457 0 0 0 3.415.732C6.373 92.219 66.662 52.606 79 3.072A2.481 2.481 0 0 0 77.2.064 2.755 2.755 0 0 0 76.6 0z" fill="#fbb03b"/></g><path id="Rectangle_712" data-name="Rectangle 712" transform="translate(872.49 499.001) rotate(32.624)" fill="#23286b" d="M0 0h60.63v60.861H0z"/><path id="Rectangle_713" data-name="Rectangle 713" transform="translate(88 466.705) rotate(-17.752)" fill="#23286b" d="M0 0h60.635v60.878H0z"/><path id="Rectangle_714" data-name="Rectangle 714" transform="translate(1159.73 378.364) rotate(32.624)" fill="#e94a47" d="M0 0h81.086v81.395H0z"/></g></g></g><g id="Phone" transform="translate(-864 -224)"><g id="Phone_2" data-name="Phone 2" transform="translate(555.243 744)"><g id="Group_331" data-name="Group 331" transform="translate(17.757)"><path id="Rectangle_715" data-name="Rectangle 715" transform="translate(543.286 176.514)" fill="#23286b" d="M0 0h32.438v246.217H0z"/><path id="Path_772" data-name="Path 772" d="M521.455 1024H68.562a56.886 56.886 0 0 1-56.75-57.021V57.021A56.881 56.881 0 0 1 68.562 0h452.9a56.886 56.886 0 0 1 56.75 57.021v909.966A56.886 56.886 0 0 1 521.455 1024z" transform="translate(-11.812)" fill="#428dfc"/><path id="Path_773" data-name="Path 773" d="M508.71 1001.95H75.716a54.674 54.674 0 0 1-54.544-54.792V68.582A54.669 54.669 0 0 1 75.716 13.79H508.71a54.674 54.674 0 0 1 54.544 54.792v878.584a54.667 54.667 0 0 1-54.544 54.784z" transform="translate(-9.012 4.13)" fill="#fff"/><path id="Rectangle_718" data-name="Rectangle 718" transform="translate(135.433)" fill="#428dfc" d="M0 0h295.534v66.985H0z"/><path id="Rectangle_719" data-name="Rectangle 719" transform="translate(135.433 967.656)" fill="#428dfc" d="M0 0h295.534v56.131H0z"/></g></g><g id="Web_Element_1" data-name="Web Element 1" transform="translate(728 892)"><path id="Rectangle_733" data-name="Rectangle 733" fill="url(#linear-gradient)" d="M0 0h265.532v192H0z"/><ellipse id="Ellipse_38" data-name="Ellipse 38" cx="21.642" cy="21.644" rx="21.642" ry="21.644" transform="translate(36.611 35.566)" fill="#fcc817"/><path id="Path_842" data-name="Path 842" d="M20 128.669 58.647 39l102.125 89.7z" transform="translate(10.918 21.295)" fill="#81aef2"/><path id="Path_843" data-name="Path 843" d="M67 120.479 95.651 54l90.363 67.023z" transform="translate(36.574 29.485)" fill="#a1c3fc"/><path id="Path_844" data-name="Path 844" d="M99.048 43.109H174.8a10.078 10.078 0 0 0 10.044-10.049A10.078 10.078 0 0 0 174.8 23.011H99.048A10.078 10.078 0 0 0 89 33.06a10.078 10.078 0 0 0 10.048 10.049z" transform="translate(48.583 12.564)" fill="#fff"/><path id="Path_845" data-name="Path 845" d="M126.985 67.72h32.561a10.048 10.048 0 0 0 10.048-10.049 10.048 10.048 0 0 0-10.048-10.049h-32.561a10.048 10.048 0 0 0-10.048 10.049 10.048 10.048 0 0 0 10.048 10.049z" transform="translate(63.833 26.002)" fill="#fff"/></g><g id="Stars" transform="translate(624 3220)"><g id="Star" transform="translate(48 -1644)"><path id="Star-2" data-name="Star" d="m33.559 0 10.37 21.068 23.188 3.378-16.779 16.4L54.3 64 33.559 53.068 12.818 64l3.961-23.155L0 24.446l23.188-3.378z" fill="#f1b505"/></g><g id="Star-3" data-name="Star" transform="translate(125.833 -1644)"><path id="Star-4" data-name="Star" d="m33.559 0 10.37 21.068 23.188 3.378-16.779 16.4L54.3 64 33.559 53.068 12.818 64l3.961-23.155L0 24.446l23.188-3.378z" fill="#f1b505"/></g><g id="Star-5" data-name="Star" transform="translate(203.667 -1644)"><path id="Star-6" data-name="Star" d="m33.559 0 10.37 21.068 23.188 3.378-16.779 16.4L54.3 64 33.559 53.068 12.818 64l3.961-23.155L0 24.446l23.188-3.378z" fill="#f1b505"/></g><g id="Star-7" data-name="Star" transform="translate(281.5 -1644)"><path id="Star-8" data-name="Star" d="m33.559 0 10.37 21.068 23.188 3.378-16.779 16.4L54.3 64 33.559 53.068 12.818 64l3.961-23.155L0 24.446l23.188-3.378z" fill="#f1b505"/></g><g id="Star-9" data-name="Star" transform="translate(359.333 -1644)"><path id="Star-10" data-name="Star" d="m33.559 0 10.37 21.068 23.188 3.378-16.779 16.4L54.3 64 33.559 53.068 12.818 64l3.961-23.155L0 24.446l23.188-3.378z" fill="url(#linear-gradient)"/></g></g><g id="Group_334" data-name="Group 334" transform="translate(-0.999 66)"><path id="table_top-i4" transform="translate(668.999 1256)" fill="url(#linear-gradient)" d="M0 0h288v48H0z"/><path id="table_top-i4-2" data-name="table_top-i4" transform="translate(670.999 1368)" fill="url(#linear-gradient)" d="M0 0h384v48H0z"/><path id="table_top-i4-3" data-name="table_top-i4" transform="translate(670.999 1144)" fill="url(#linear-gradient)" d="M0 0h384v48H0z"/></g></g><g id="Rockket" transform="translate(114.127 540.985) rotate(21)"><g id="Group_320" data-name="Group 320" transform="matrix(0.969, -0.249, 0.249, 0.968, 0.032, 102.482)"><g id="Group_319" data-name="Group 319" transform="translate(0 0)"><path id="Path_750" data-name="Path 750" d="M86.169 314.83c27.84 16.419 47.619 40.6 57.373 66.706 38.761-25.685 78.549-68.444 110.533-122.6C319.289 148.518 272.111 0 272.111 0S119.2 30.51 53.982 140.932C22 195.087 3.767 250.558 0 296.883c27.582-4.083 58.329 1.528 86.169 17.947z" transform="translate(93.968 73.84)" fill="url(#linear-gradient-6)"/><path id="Path_751" data-name="Path 751" d="M92.188 42.883a54.851 54.851 0 0 1 17.819 16.823A55.093 55.093 0 1 0 9.281 85.641a55.1 55.1 0 0 1 82.907-42.758z" transform="translate(208.445 201.023)" fill="#efefef"/><path id="Path_752" data-name="Path 752" d="M93.264 47.8a54.793 54.793 0 0 0 7.461-23.332A55.113 55.113 0 0 0 0 50.408a55.133 55.133 0 0 0 93.264-2.6z" transform="translate(217.726 236.257)" fill="#fff"/><path id="Path_753" data-name="Path 753" d="M91.606 0 0 112.722 36.319 192.5C86 122 102.894 58.143 91.606 0z" transform="translate(230.163 334.882)" fill="#ff4945"/><path id="Path_754" data-name="Path 754" d="M141.926 0 87.449 134.618 0 141.407C37.754 63.873 85.535 18.227 141.926 0z" transform="translate(22.258 241.945)" fill="#ff4945"/><g id="Group_313" data-name="Group 313" transform="translate(357.247 0)"><path id="Path_755" data-name="Path 755" d="M2.93 88.3a2.928 2.928 0 0 1-2.523-4.415L49.1 1.439a2.93 2.93 0 0 1 5.049 2.975L5.455 86.86A2.932 2.932 0 0 1 2.93 88.3z" transform="translate(0 0)" fill="#ff4945"/></g><g id="Group_314" data-name="Group 314" transform="translate(153.304 491.183)"><path id="Path_756" data-name="Path 756" d="M.977 128.69a.94.94 0 0 1-.276-.042.971.971 0 0 1-.66-1.211A1063.455 1063.455 0 0 0 29.152.812a.978.978 0 0 1 1.928.327A1065.061 1065.061 0 0 1 1.916 127.986a.98.98 0 0 1-.939.704z" transform="translate(0 0)" fill="#5babf2"/></g><g id="Group_315" data-name="Group 315" transform="translate(0 440.764)"><path id="Path_757" data-name="Path 757" d="M.978 88.7a.977.977 0 0 1-.7-1.664A1066.045 1066.045 0 0 1 97.318.216a.976.976 0 1 1 1.217 1.526A1065.247 1065.247 0 0 0 1.672 88.409a.981.981 0 0 1-.694.291z" transform="translate(0 0)" fill="#5babf2"/></g><path id="Rectangle_709" data-name="Rectangle 709" transform="matrix(-0.348, -0.937, 0.938, -0.348, 138.935, 661.033)" fill="#ff4945" d="M0 0h22.759v22.771H0z"/><path id="Rectangle_710" data-name="Rectangle 710" transform="matrix(0.743, -0.669, 0.67, 0.743, 3.419, 633.253)" fill="#1b236d" d="M0 0h22.769v22.768H0z"/><path id="Rectangle_711" data-name="Rectangle 711" transform="matrix(-0.348, -0.937, 0.938, -0.348, 21.039, 484.514)" fill="#5babf2" d="M0 0h15.51v15.518H0z"/><g id="Group_316" data-name="Group 316" transform="translate(37.742 491.763)"><path id="Path_758" data-name="Path 758" d="M.975 119.55a.975.975 0 0 1-.839-1.471L69.589.479a.977.977 0 0 1 1.684.992L1.82 119.07a.992.992 0 0 1-.845.48z" transform="translate(0 0)" fill="#5babf2"/></g><g id="Group_317" data-name="Group 317" transform="translate(114.341 554.749)"><path id="Path_759" data-name="Path 759" d="M.977 33.949a.937.937 0 0 1-.342-.062.976.976 0 0 1-.573-1.258l12-31.994a.978.978 0 0 1 1.832.687l-12 31.994a.986.986 0 0 1-.917.633z" transform="translate(0 0)" fill="#5babf2"/></g><g id="Group_318" data-name="Group 318" transform="translate(198.66 191.258)"><path id="Path_760" data-name="Path 760" d="M64.835 129.64a64.811 64.811 0 1 1 55.91-31.881 64.835 64.835 0 0 1-55.91 31.881zm.1-110.115A45.56 45.56 0 0 0 25.852 41.8a45.316 45.316 0 0 0 38.986 68.32 45.3 45.3 0 0 0 .1-90.6z" transform="translate(0 0)" fill="#ff4945"/></g><path id="Path_761" data-name="Path 761" d="M24.069 71.169c55.9 32.967 96.457 80.963 118.214 133.587C170.784 105.487 137.277 0 137.277 0S65.986 14.234 0 58.408q12.174 5.768 24.069 12.761z" transform="translate(228.805 73.84)" fill="#5babf2"/><path id="Path_762" data-name="Path 762" d="M135.013 126.382C136.689 56.868 118.635 0 118.635 0S60.089 11.693 0 46.757z" transform="translate(250.691 68.344)" fill="url(#linear-gradient-7)"/></g></g></g></g></svg>