<svg xmlns="http://www.w3.org/2000/svg" xmlns:xlink="http://www.w3.org/1999/xlink" width="768" height="768" viewBox="0 0 768 768"><defs><linearGradient id="a" x1=".503" y1=".593" x2=".512" y2=".939" gradientUnits="objectBoundingBox"><stop offset="0" stop-color="#d0e1fd"/><stop offset="1" stop-color="#b8d1f8"/></linearGradient><linearGradient id="b" y1=".5" x2="1" y2=".5" gradientUnits="objectBoundingBox"><stop offset="0" stop-color="#b8d2fd"/><stop offset="1" stop-color="#a0c2f5"/></linearGradient><linearGradient id="c" x1=".345" y1=".267" x2=".584" y2=".683" gradientUnits="objectBoundingBox"><stop offset="0" stop-color="#eee"/><stop offset=".952" stop-color="#d6d7d8"/></linearGradient><linearGradient id="d" y1=".5" x2="1" y2=".5" gradientUnits="objectBoundingBox"><stop offset="0" stop-color="#23286b"/><stop offset="1" stop-color="#151a4f"/></linearGradient><linearGradient id="e" x1=".332" y1=".399" x2=".734" y2=".608" xlink:href="#a"/><linearGradient id="g" x1=".5" y1=".823" x2=".5" y2=".203" gradientUnits="objectBoundingBox"><stop offset="0" stop-color="#ffbeb6"/><stop offset="1" stop-color="#f2a19c"/></linearGradient><clipPath id="h"><path transform="translate(0 0.402)" d="M0 0h155v149H0z"/></clipPath><clipPath id="j"><path d="M0 0h768v768H0z"/></clipPath></defs><g id="i" clip-path="url(#j)"><g transform="translate(-209.392 0)"><g transform="translate(365 36.308)"><path d="M98.405 538.917c-6.837-.508-12.568-3.1-20-1.385-7.351 1.7-18.48 2.1-26.093 2.753-14.316 1.223-26.643-2.262-40.339-.524-22.709 2.882-8.876 21.915 6.668 23.36 12.23 1.136 34.4-3.1 43.1 8.6-6 2.31-25.367 6.989-20.956 17.288 4.878 11.387 22.138-2.288 27.674-5.357 7.285-4.038 26.193-9.09 30-14.394 4.123-5.744 3.103-30.107-.054-30.341z" transform="translate(0 -115.002)" fill="#eee"/><path d="M115.076 554.032c-.588 6.382-1.737 11.066-1.213 19.448 20.818 12.5 45.714 16.921 69.086 21.66 25.229 5.116 52.142 6.506 77.581 1.107 13.6-2.887 25.134-11.951 27.975-26.551 2.825-14.519-.3-32.114-16.57-37.069-23.564-7.178-45.806 5.874-68.522 9.287-13.6 2.044-24.874.545-38.462-.864-15.9-1.648-33.8-2.146-49.472-5.028.352.538.065 12.937-.403 18.01z" transform="translate(-24.358 -113.621)" fill="#c0d7fd"/><path d="M189.822 543.208c1.968 8.63 2.908 14.436 2.856 23.726-.046 7.939-2.176 22.257-3.134 27.508 12.448 2.757 24.2 5.624 36.95 6.393 5.785.349 11.9.949 17.812.407 6.27-.574 12.455-3.307 18.691-3.513-2.587-2.689-.563-10.432-.355-14.3a48.16 48.16 0 0 0-2.1-15.716 269.356 269.356 0 0 0-11.617-31.787c-18.336 7.474-14.816 4.891-38.494 6.632-.103.759-21.52.281-20.609.65z" transform="translate(-40.596 -114.782)" fill="#a1c3fc"/><path d="M649.585 301.028c7.8-9.768 23.167-29.8 26.894-27.917 6.858 5.872 62.876 58.007 75.038 69.437-1.125 2.925-3.372 4.293-6.245 5.509-7.8 3.3-18.734 1.824-25.864-1.016s-10.642-5.473-17.925-7.991c-8.32-2.876-15.081-2.023-22.31-6.778-2.923-1.923-8.357-9.233-10.779-11.743z" transform="translate(-139.125 -58.467)" fill="#eee"/><path d="M560.661 273.961c-3.193-12.088-10.125-36.366-6.388-38.234 8.8-2.008 84.053-15.917 100.48-18.87 1.678 2.647 1.437 5.266.7 8.3-2 8.234-9.7 16.131-16.23 20.163s-10.737 5.283-17.1 9.631c-7.267 4.966-11.615 9.6-19.741 12.573-3.286 1.2-11.393 2.51-14.852 2.958z" transform="translate(-118.481 -46.445)" fill="#d6d7d8"/><path d="M208.123 780.358c-7.2 7.413-11.812 12.571-22 15.192-7.061 1.817-23.575 3.668-20.914 9.664 5.373 9.939 21.19 2.933 28.772.289 6.889 11.193-5.568 28.271 3.84 40.883 7.262 9.736 28.409 20.343 39.782 13.061 12.165-7.788-5.5-24.39-5.9-35.609-.568-15.731 11.312-23.107 14.656-37.289-11.988.611-28.803-15.9-38.236-6.191z" transform="translate(-35.322 -166.477)" fill="#eee"/><path d="M599.478 278.525c.225 14.733 1.114 34.6 1.411 47.051.342 14.368-2.423 29.754-3.854 44.176-1.338 13.486-7.48 36.225-10.673 49.513-3.41 14.19 1.025 19.766-5.612 32.319-17.9-3.8-44.6-10.89-63.121-13.194-.246-14.932 2.328-23.668 6.364-39.144 4.57-17.522 15-30.629 18.786-46.1 3.089-12.626 3.981-20.3 2.634-32.561-1.822-16.6 3.017-23.088 6.557-38 1.114.77 33.736-4.691 47.508-4.06z" transform="translate(-110.86 -59.642)" fill="#81aef2"/><path d="m423.59 377.234-2.27-5.863c17.255-6.68 36.561-33.048 40.263-49.949 4.788-21.859-3.422-43.832-20.918-55.981-6.47-4.493-13.243-8.672-19.792-12.715-11.454-7.069-23.3-14.38-33.884-23.589-8.772-7.631-17.107-19.171-22.3-30.868-4.386-9.884-8.661-24.557-4.125-38.329 11.31-34.333 39.757-51.767 67.268-68.627 5.011-3.071 10.194-6.247 15.163-9.463 27.7-17.929 35.993-44.119 25.34-80.065L474.367 0c11.392 38.439 1.987 67.754-27.952 87.13-5.033 3.258-10.249 6.454-15.293 9.545-27.766 17.016-53.993 33.089-64.582 65.234-7.18 21.8 10.421 50.172 24.577 62.487 10.2 8.872 21.3 15.725 33.059 22.981 6.621 4.086 13.466 8.312 20.075 12.9 19.594 13.6 28.808 38.134 23.473 62.489-4.052 18.501-24.643 46.921-44.134 54.468z" transform="translate(281.819) translate(-358.628)" fill="#a1c3fc"/><path d="M263.161 545.415c2.649 10.067 10.754 16.857 19.984 22.426 7.845 4.734 17.774 7.175 26.614 9.17 20.3 4.581 38.591 3.826 58.778.806 46.321-6.929 78.461-27.09 112.589-58.568 16.688-15.392 29.4-35.2 38.079-56.512 4.737-11.631 8.842-18.826 11.167-30.875 3.2-16.607 17.172-37.36 27.49-51.615 10.165-14.043 23.966-32.382 40.7-38.812-5.937-7.824-13.262-14.832-19.618-22.251-4.464-5.208-10.623-10.956-10.623-10.956s-8.7 2.688-15.181 5.087c-9.662 3.572-21.315 8.638-27.841 16.979-6.6 8.431-8.609 18.836-16.864 26.425-7.8 7.175-19.019 11.233-25.337 20.255-5.753 8.215-12.623 21.555-17.953 30.28-11.1 18.174-24.648 24.68-43.085 33.958-32.454 16.332-63.686 26.668-98.966 32.418-37.485 6.11-59.64 22-59.934 59.332 1.034-.867-.26 7.154.001 12.453z" transform="translate(-56.355 -66.015)" fill="url(#a)"/><path d="M518.157 424.057s26.584 2.047 38.872 6.921c14.08 5.584 26.354 15.612 26.947 20.652 1.542 13.108 3.709 27.223-2.2 39.03-6.5 12.991-17.792 21.371-29.824 28.865 4.508-26.738-29.5-68.544-57.937-66.571 12.285-10.515 24.142-28.897 24.142-28.897z" transform="translate(-105.807 -90.823)" fill="url(#b)"/><path d="M435.29 484.459c-22.99 30.028-61.176 46.441-106.49 56.449l-13.858-24.123a38.319 38.319 0 0 1 14.139-52.314l45.516-26.147a38.319 38.319 0 0 1 52.314 14.139l9.433 16.421a14.08 14.08 0 0 1-1.054 15.575z" transform="translate(-66.36 -92.786)" fill="url(#c)"/><circle cx="58.688" cy="58.688" r="58.688" transform="translate(156.095 364.524)" fill="url(#d)"/><path d="M328.643 566.192c-44.115 0-47.241 43.438-61.239 79.559-6.068 15.659-12.935 27.689-22.422 41.722-5.439 8.046-11.613 20.2-16.136 28.756-2.21 4.182-13.942 24.036-14.132 24.292 6.8 5.809 15.968 11.967 23.061 16.557a55.375 55.375 0 0 0 8.278 4.272s6.884-7.2 13.185-13.481c15.906-15.864 31.5-31.527 46.974-48.023 13.3-14.179 25.985-30.068 33.937-47.885 6.793-15.218 17.654-33.3 15.082-51.118-1.143-7.936-7.195-34.651-26.588-34.651z" transform="translate(-45.986 -121.264)" fill="url(#e)"/><path d="M276.047 664.409c18.932 0 50.47 10.477 63.149 25.238-7.739 19.128-24.1 38.767-40.863 47.15-8.382-9.43-29.861-27.766-42.435-31.957 5.726-6.14 17.288-31.957 20.149-40.431z" transform="translate(-54.807 -142.3)" fill="url(#b)"/><path d="m269.124 558.705-9.024-20.351a14.257 14.257 0 0 0-18.81-7.258l-40.93 18.138a58.775 58.775 0 0 0 33.052 40.889l28.449-12.608a14.256 14.256 0 0 0 7.263-18.81z" transform="translate(-42.913 -113.485)" fill="#151a4f"/><path d="m274.864 558.705-9.019-20.351a14.257 14.257 0 0 0-18.81-7.258l-19.741 8.749c2.429 14-.623 24.211-.054 25.638.841 2.108 3.093 1.7 4.97 1.72 2.357.026 3.471.384 4.734 2.583 2.339 4.073 4.577 7.305 8.324 9.978 2.464 1.757 6.725 2.762 9.835 3.294l12.5-5.541a14.257 14.257 0 0 0 7.261-18.812z" transform="translate(-48.654 -113.485)" fill="url(#g)"/><path d="M232.882 591.554a1.965 1.965 0 0 1-.8-3.761l28.45-12.608a12.306 12.306 0 0 0 6.258-16.219l-9.019-20.351a12.305 12.305 0 0 0-16.219-6.258L200.626 550.5a1.964 1.964 0 1 1-1.592-3.591l40.93-18.139a16.238 16.238 0 0 1 21.4 8.258l9.019 20.351a16.22 16.22 0 0 1-8.258 21.4l-28.45 12.608a1.933 1.933 0 0 1-.793.167z" transform="translate(155.487 414.425) translate(-197.865 -527.375)" fill="#d6d7d8"/><path d="M380.72 465.9a.284.284 0 1 0-.344-.208.288.288 0 0 0 .344.208zm-1.706-6.745a.314.314 0 0 0 .222-.358.29.29 0 0 0-.356-.2.268.268 0 0 0-.217.312.159.159 0 0 0 .009.033.282.282 0 0 0 .342.209zm24.967-10.755a.29.29 0 0 0 .4-.094.265.265 0 0 0-.075-.368.1.1 0 0 0-.033-.018.281.281 0 0 0-.387.08.29.29 0 0 0 .1.4zm-38.014 14.477a.279.279 0 0 0 .086-.552.277.277 0 0 0-.318.233.265.265 0 0 0 .2.314.1.1 0 0 0 .032 0zm25.663-6.37a.317.317 0 0 0 .414.057.3.3 0 0 0-.358-.472.319.319 0 0 0-.055.408zm-4.153-5.586a.285.285 0 0 0 .4.045.277.277 0 0 0 .085-.38l-.014-.02a.3.3 0 0 0-.414-.057.316.316 0 0 0-.056.407zm-36.04 39.063a.54.54 0 0 0 .646-.406v-.019a.535.535 0 0 0-.406-.637.54.54 0 0 0-.646.406v.019a.535.535 0 0 0 .406.637zm2.773-12.884a.55.55 0 0 0 .237-1.075h-.01a.532.532 0 0 0-.635.405.569.569 0 0 0 .408.669zm48.7 15.654a.552.552 0 0 0 .757.157.526.526 0 0 0 .185-.719.217.217 0 0 0-.016-.024.553.553 0 0 0-.758-.156.54.54 0 0 0-.167.743zm-14.293-22.192a.536.536 0 0 0 .741.166.085.085 0 0 0 .014-.011.526.526 0 0 0 .185-.719.218.218 0 0 0-.016-.024.584.584 0 0 0-.772-.171.556.556 0 0 0-.152.76zm-7.148-11.083a.546.546 0 1 0 .912-.6.54.54 0 0 0-.743-.171.55.55 0 0 0-.181.754c0 .007.009.013.012.018zm-6.335 37.95a.542.542 0 1 0-.645-.431.557.557 0 0 0 .645.431zm-2.367-12.985a.542.542 0 1 0-.645-.431.556.556 0 0 0 .645.431zm-2.354-12.972a.57.57 0 1 0-.03 0 .088.088 0 0 0 .028-.004zm46.926-1.077a.55.55 0 0 0 .76-.148.533.533 0 0 0-.129-.743.525.525 0 0 0-.735.086l-.026.035a.584.584 0 0 0 .128.766zm-21.675-15.052a.522.522 0 0 0 .73-.112.074.074 0 0 0 .013-.022.542.542 0 0 0-.112-.758l-.021-.016a.547.547 0 1 0-.616.9.025.025 0 0 0 .004.004zm-33.3 44.049a.485.485 0 1 0-.522-.446.49.49 0 0 0 .522.446zm-1-11.734a.493.493 0 1 0-.523-.475v.031a.477.477 0 0 0 .5.447.064.064 0 0 1 .019 0zm-1.326-11.849a.4.4 0 0 0 .332.112.489.489 0 0 0 .445-.522.5.5 0 0 0-.531-.461h-.005a.493.493 0 0 0-.388.246l-.014.015a.332.332 0 0 0-.041.262.414.414 0 0 0 .2.347zm45.94.75a.515.515 0 0 0 .7-.064.471.471 0 0 0-.051-.663l-.017-.013a.481.481 0 0 0-.682.044.509.509 0 0 0 .047.694zm-17.98-15.219a.486.486 0 0 0 .685-.042l.006-.008a.458.458 0 0 0-.031-.647.184.184 0 0 0-.036-.029.486.486 0 0 0-.685.042.029.029 0 0 1-.006.008.5.5 0 0 0 .067.676zm-8.982-7.589a.49.49 0 0 0 .622-.756.51.51 0 0 0-.689.05.516.516 0 0 0 .067.706zm3.556 33.62a.494.494 0 0 0 .661.2.479.479 0 0 0 .208-.646.512.512 0 0 0-.66-.226.506.506 0 0 0-.213.67zm-5.4-10.477a.468.468 0 0 0 .622.225.154.154 0 0 1 .025-.013.479.479 0 0 0 .208-.646.512.512 0 0 0-.66-.226.493.493 0 0 0-.198.657zm-5.411-10.464a.394.394 0 1 0-.008-.009.021.021 0 0 1 .005.006zm29.194-16.574a.485.485 0 1 0 .284-.926.493.493 0 0 0-.6.3.482.482 0 0 0 .286.615c.01.002.019.007.027.008zm-27.627 17.412a.285.285 0 1 0 .045-.4.282.282 0 0 0-.045.4zm-4.361-5.41a.3.3 0 0 0 .414.03.286.286 0 0 0 .045-.4.272.272 0 0 0-.383-.057.138.138 0 0 0-.017.014.3.3 0 0 0-.063.409zm-9.872 8.867a.309.309 0 0 0 .195-.357.282.282 0 0 0-.343-.2h-.016a.274.274 0 0 0-.2.331c0 .009 0 .017.008.025a.29.29 0 0 0 .358.2zm20.607-16.5a.283.283 0 1 0 .275-.5.264.264 0 0 0-.368.075.133.133 0 0 0-.018.033.28.28 0 0 0 .1.382.032.032 0 0 0 .01.006zm-34.057 29.815a.314.314 0 0 0 .292-.334.021.021 0 0 1 0-.009.322.322 0 0 0-.331-.309h-.026a.314.314 0 0 0-.292.334.021.021 0 0 1 0 .009.339.339 0 0 0 .357.307zm29.549-15.052a.3.3 0 0 0 .43-.009.158.158 0 0 0 .024-.031.325.325 0 0 0-.038-.455.358.358 0 0 0-.47.026.333.333 0 0 0 .054.469zm-6.016-5.169a.33.33 0 0 0 .468-.052.325.325 0 0 0-.038-.455.333.333 0 1 0-.43.508zm-9.142 11.988a.386.386 0 0 0 .137-.028.32.32 0 0 0 .145-.431.033.033 0 0 1 0-.01.335.335 0 0 0-.426-.155l-.014.015a.32.32 0 0 0-.145.431.023.023 0 0 1 0 .01.3.3 0 0 0 .3.167zm19.863-22.8a.325.325 0 0 0 .411-.207v-.01a.318.318 0 0 0-.205-.4.313.313 0 0 0-.408.171c0 .008 0 .013-.009.02a.34.34 0 0 0 .208.427zm-10.238 56.54a.585.585 0 0 0 .773.226.563.563 0 0 0 .238-.756.579.579 0 0 0-.773-.226.559.559 0 0 0-.238.756zm-6.361-12.028a.56.56 0 1 0 .238-.756.562.562 0 0 0-.238.756zm-6.37-12.019a.578.578 0 0 0 .772.227.559.559 0 1 0-.772-.227zm36.51-23.759a.573.573 0 0 0 .7-.369.562.562 0 0 0-1.073-.336.57.57 0 0 0 .369.7zm-12.985-4.012a.568.568 0 0 0 .7-.369.591.591 0 0 0-.383-.719.567.567 0 0 0-.321 1.088zm-4.068 21.555a.57.57 0 0 0 .8-.076.549.549 0 0 0-.079-.772.557.557 0 1 0-.726.845zm-10.468-8.673a.553.553 0 0 0 .779-.054l.007-.008a.569.569 0 1 0-.8.052zm6.915 16.726a.568.568 0 0 0 .8-.05.576.576 0 0 0-.039-.787.6.6 0 0 0-.813.036.583.583 0 0 0 .052.8zm-10.066-9.072a.568.568 0 0 0 .8-.05.558.558 0 0 0-.826-.75.582.582 0 0 0 .026.8zM350.007 495a.558.558 0 0 0 .739.256.562.562 0 0 0 .279-.742.566.566 0 1 0-1.021.487zm-5.833-12.247a.558.558 0 1 0 1.016-.464l-.007-.013a.586.586 0 0 0-.758-.268.556.556 0 0 0-.255.74v.005zm46.944-13.429a.571.571 0 0 0 .718-.354.555.555 0 0 0-.342-.706.544.544 0 0 0-.71.3.075.075 0 0 0-.008.024.56.56 0 0 0 .325.726.04.04 0 0 0 .016.005zm-12.762-4.536a.571.571 0 0 0 .718-.354.555.555 0 0 0-.342-.706.544.544 0 0 0-.71.3.076.076 0 0 0-.008.024.561.561 0 0 0 .325.726zm-9.24 12.72a.423.423 0 0 0 .431-.728.409.409 0 0 0-.56.123.3.3 0 0 0-.021.038.423.423 0 0 0 .149.559zm-8.83-5.1a.426.426 0 1 0 .417-.742.419.419 0 0 0-.573.148.079.079 0 0 1-.008.013.437.437 0 0 0 .164.581zm-9.1 17.247a.426.426 0 0 0 .591.072.443.443 0 0 0 .071-.593.42.42 0 0 0-.589-.076.41.41 0 0 0-.091.569zm-6.236-8.11a.449.449 0 0 0 .607.086.42.42 0 0 0 .075-.589.407.407 0 0 0-.567-.1l-.012.01a.423.423 0 0 0-.1.587z" transform="translate(-73.701 -95.922)" fill="#fff"/></g><g clip-path="url(#h)" transform="translate(210 549.598)"><path transform="translate(31.794 50.17)" fill="#1d72d8" d="M0 0h119.437v99.232H0z"/><path transform="translate(27.857 49.296)" fill="#428dfc" d="M0 0h127.312v43.288H0z"/><path d="M106.447 129.93h-.038a1.954 1.954 0 0 1-1.917-1.989l1.372-73.227a11.315 11.315 0 0 1-4.243-2.97 1.951 1.951 0 0 1-1.416-.73 70.347 70.347 0 0 1-13.533-27.947c-2.228-9.652-.8-17.492 4.017-22.073a1.929 1.929 0 0 1 .531-.359 6.947 6.947 0 0 1 5.436-.159c3.484 1.295 6.174 4.933 7.529 7.907a50.588 50.588 0 0 1 4.14 14.094c2.41-7.045 5.335-13.718 12.419-15.175a5.754 5.754 0 0 1 5.156 1.4c3.786 3.373 4.578 11.622 4.189 16.029a19.918 19.918 0 0 1-.738 3.9 17.851 17.851 0 0 1 11.429.78 9.047 9.047 0 0 1 4.917 5.642 15.333 15.333 0 0 1-1.219 12c-3.154 5.521-10.221 8.714-20.434 9.234a41.065 41.065 0 0 1-14.264-2.014l-1.383 73.73a1.949 1.949 0 0 1-1.95 1.927zm.206-80.958c5.568 2.421 12.083 3.758 17.165 3.427 6.177-.313 14.156-1.829 17.267-7.271a11.418 11.418 0 0 0 .915-8.813 5.255 5.255 0 0 0-2.732-3.3c-3.885-1.635-7.956-1.187-12.05.441-4.27 7.078-12.524 11.909-20.565 15.517zM93.134 4.069c-4.81 4.891-3.734 13.422-2.652 18.123a66.43 66.43 0 0 0 9 21.16 28.49 28.49 0 0 1 3.706-7.883l.168-.281a25.035 25.035 0 0 0 1.319-2.566A44.657 44.657 0 0 0 100.63 10c-1.275-2.8-3.42-5.152-5.335-5.865a3.081 3.081 0 0 0-2.161-.066zM108.519 33.6a45.868 45.868 0 0 1-1.913 9.15c5.616-4.628 11.636-9.581 17.848-12.392a16.056 16.056 0 0 0 1.746-5.968c.394-4.467-.7-10.812-2.9-12.77a1.86 1.86 0 0 0-1.767-.492c-5.734 1.18-7.982 7.967-10.36 15.154-.816 2.464-1.65 4.982-2.654 7.318z" transform="translate(70.315 0) translate(-85.646 0)" fill="#e94a47"/><path d="M1.955 90.5a1.955 1.955 0 0 1-1.82-2.665C2.7 81.27 9.116 76.74 15.905 71.945c5.99-4.23 12.183-8.6 15.65-14.486 2.149-3.648 3-7.862 3.9-12.323a61.2 61.2 0 0 1 2.516-9.687c2.005-5.287 6.616-9.935 11.472-11.565a10.657 10.657 0 0 1 9.328.933 18.847 18.847 0 0 1 5.164 5.523l.382.539a77.459 77.459 0 0 0 23.645 21.683 1.953 1.953 0 1 1-1.982 3.365 81.374 81.374 0 0 1-24.849-22.785l-.389-.551a15.679 15.679 0 0 0-4.042-4.466 6.775 6.775 0 0 0-6.008-.539c-3.747 1.259-7.473 5.061-9.062 9.247a57.486 57.486 0 0 0-2.339 9.074c-.924 4.582-1.88 9.32-4.363 13.533-3.891 6.6-10.433 11.227-16.76 15.694-6.3 4.447-12.245 8.649-14.386 14.127A1.96 1.96 0 0 1 1.955 90.5z" transform="translate(0 19.069) translate(0 -23.229)" fill="#e94a47"/></g></g></g></svg>